<svg
   xmlns:dc="http://purl.org/dc/elements/1.1/"
   xmlns:cc="http://creativecommons.org/ns#"
   xmlns:rdf="http://www.w3.org/1999/02/22-rdf-syntax-ns#"
   xmlns:svg="http://www.w3.org/2000/svg"
   xmlns="http://www.w3.org/2000/svg"
   xmlns:sodipodi="http://sodipodi.sourceforge.net/DTD/sodipodi-0.dtd"
   xmlns:inkscape="http://www.inkscape.org/namespaces/inkscape"
   id="svg2"
   version="1.1"
   inkscape:version="0.91 r13725"
   width="644.0625"
   height="358.125"
   viewBox="0 0 644.0625 358.125"
   sodipodi:docname="Sumika Bandlogo.svg">
  <metadata
     id="metadata8">
    <rdf:RDF>
      <cc:Work
         rdf:about="">
        <dc:format>image/svg+xml</dc:format>
        <dc:type
           rdf:resource="http://purl.org/dc/dcmitype/StillImage" />
        <dc:title></dc:title>
      </cc:Work>
    </rdf:RDF>
  </metadata>
  <defs
     id="defs6" />
  <sodipodi:namedview
     pagecolor="#ffffff"
     bordercolor="#666666"
     borderopacity="1"
     objecttolerance="10"
     gridtolerance="10"
     guidetolerance="10"
     inkscape:pageopacity="0"
     inkscape:pageshadow="2"
     inkscape:window-width="1366"
     inkscape:window-height="705"
     id="namedview4"
     showgrid="false"
     inkscape:zoom="1.1844978"
     inkscape:cx="322.03125"
     inkscape:cy="199.32252"
     inkscape:window-x="-8"
     inkscape:window-y="-8"
     inkscape:window-maximized="1"
     inkscape:current-layer="svg2" />
  <path
     style="fill:#000000"
     d="M 33.892264,350.2388 C 29.826152,349.5959 21.514536,346.59709 17.781096,344.42593 10.556807,340.22468 4.7295934,331.26141 4.480765,323.96771 l -0.1368883,-4.01249 10.7188533,-0.26494 10.718853,-0.26494 2.403876,4.90826 c 2.071726,4.23007 3.077797,5.26887 7.281275,7.51812 4.701074,2.51552 5.218584,2.60338 14.315058,2.43016 8.454437,-0.16098 9.841096,-0.41039 13.310109,-2.39402 3.851035,-2.20208 5.836308,-4.99374 5.836308,-8.20692 0,-3.01645 -3.181321,-8.08743 -5.654121,-9.01258 -4.506458,-1.68602 -10.821775,-3.69337 -13.763391,-4.37474 -11.751804,-2.72212 -19.320366,-4.77847 -23.63871,-6.42253 -1.625161,-0.61873 -3.806745,-1.36161 -4.847965,-1.65084 -3.319078,-0.92201 -10.26079,-7.06676 -12.1648854,-10.76829 -1.4893169,-2.89519 -1.8540301,-5.1081 -1.9115091,-11.59812 -0.06682,-7.54473 0.093673,-8.32062 2.7067384,-13.08572 1.5277731,-2.78599 3.6258281,-6.0152 4.6623431,-7.17603 2.573778,-2.88246 8.376579,-6.75392 10.123238,-6.75392 1.819906,0 1.884379,-2.80401 0.105378,-4.58301 -1.017005,-1.01701 -3.170427,-1.32667 -9.225887,-1.32667 l -7.8992258,0 -0.5069101,-4.43225 C 6.6345017,240.05849 6.5355119,234.86721 6.6933249,230.96006 l 0.2869327,-7.10392 12.1896444,-2.78654 c 11.441777,-2.61558 16.221449,-3.66233 30.762915,-6.73711 3.250322,-0.68728 7.99917,-1.78407 10.552995,-2.43731 2.553825,-0.65324 6.525029,-1.39925 8.824898,-1.65781 2.299868,-0.25857 5.339131,-0.82221 6.753917,-1.25253 5.262818,-1.60078 10.109897,-2.73392 16.383836,-3.83022 3.547638,-0.6199 9.489517,-1.94033 13.204167,-2.93429 3.71466,-0.99396 9.79318,-2.39193 13.50784,-3.10661 3.71465,-0.71467 8.4635,-1.63061 10.55299,-2.03541 2.0895,-0.40479 7.21825,-1.51439 11.39724,-2.46576 4.17898,-0.95137 9.84052,-2.12406 12.5812,-2.60598 2.74067,-0.48191 5.65999,-1.23849 6.48736,-1.68129 0.82736,-0.44279 2.64428,-0.80508 4.03757,-0.80508 1.39329,0 3.60274,-0.40726 4.90987,-0.90501 1.30715,-0.49775 5.03598,-1.41833 8.2863,-2.04573 3.25032,-0.6274 8.56903,-1.75472 11.81936,-2.50517 3.25032,-0.75044 8.56903,-1.88617 11.81935,-2.52383 3.25032,-0.63766 9.13889,-1.92009 13.08572,-2.84983 9.49189,-2.23598 19.55302,-4.42676 35.45806,-7.72089 7.19714,-1.49061 15.17521,-3.22822 17.72903,-3.86134 2.55383,-0.63312 7.87254,-1.7844 11.81936,-2.55839 3.94682,-0.774 8.88562,-1.75826 10.97511,-2.18725 2.0895,-0.429 5.50867,-1.06927 7.59816,-1.42283 2.08949,-0.35356 4.6289,-1.09593 5.64312,-1.64972 1.01421,-0.55378 2.73896,-1.00688 3.83276,-1.00688 1.0938,0 4.25302,-0.59895 7.02048,-1.33101 2.76746,-0.73206 6.74133,-1.62954 8.83083,-1.9944 3.35964,-0.58666 9.99347,-2.01978 29.54838,-6.38339 20.5012,-4.57477 21.02965,-4.59294 36.72443,-1.26312 4.64332,0.98513 10.58889,2.10134 13.21238,2.48048 2.6235,0.37913 5.18501,0.94582 5.69225,1.25931 0.50723,0.31349 3.29954,0.93598 6.20512,1.38331 2.90558,0.44734 6.99246,1.178 9.08195,1.62369 2.0895,0.4457 6.45844,1.35576 9.70876,2.02237 3.25032,0.6666 8.01826,1.66735 10.59541,2.22388 8.53042,1.84214 7.94545,3.23725 8.20397,-19.56629 0.26448,-23.32844 -1.21907,-20.94865 13.07067,-20.9668 l 9.07557,-0.0115 0.0888,3.58802 c 0.0489,1.97341 0.1952,12.13594 0.32523,22.58341 0.13004,10.44746 0.28003,19.42837 0.33333,19.95758 0.0533,0.5292 2.47131,1.35606 5.37338,1.83746 2.90207,0.48141 6.98608,1.26497 9.07557,1.74125 4.30017,0.98019 24.62972,5.03783 30.39263,6.06616 3.54551,0.63266 12.59352,2.44987 26.59355,5.34105 3.25032,0.67124 6.47954,1.43719 7.17604,1.70212 0.69649,0.26494 3.73576,0.86542 6.75391,1.33441 3.01816,0.46898 8.14692,1.43728 11.39724,2.15176 3.25032,0.71449 9.89871,2.06854 14.77419,3.009 14.31927,2.76213 15.96646,3.09625 26.59355,5.39428 5.57198,1.20489 11.84046,2.52153 13.92995,2.92586 2.0895,0.40433 4.93881,1.08024 6.3318,1.50203 l 2.53272,0.76689 0.23261,21.04568 c 0.16485,14.9153 -0.0566,21.5906 -0.76044,22.91643 -0.7758,1.4615 -0.7542,2.15855 0.0987,3.1863 0.6005,0.72355 0.87786,1.52949 0.61636,1.79099 -0.2615,0.26149 -3.63983,0.46451 -7.5074,0.45115 -8.84411,-0.0306 -11.57014,0.89044 -11.02811,3.72588 0.21666,1.13335 0.8712,2.06063 1.45454,2.06063 2.10619,0 8.61622,3.37048 11.10632,5.75016 5.53413,5.28871 5.64941,6.13628 6.16507,45.32634 0.45322,34.44553 0.51962,35.55903 2.3254,38.99403 l 1.85886,3.53597 -3.06292,1.01086 c -1.99056,0.65694 -5.98838,0.84965 -11.41879,0.55042 -9.44726,-0.52057 -10.29541,-1.05669 -11.2347,-7.10155 -0.5201,-3.34709 -0.65982,-3.49167 -2.64506,-2.73689 -1.15278,0.43828 -4.24754,2.43141 -6.87725,4.42917 -8.1332,6.17869 -12.33453,7.494 -24.1347,7.55587 -10.63904,0.0558 -11.95595,-0.27219 -19.59221,-4.87937 -3.25349,-1.96291 -7.33595,-7.92988 -9.11121,-13.31705 -2.91555,-8.84746 -0.6308,-21.65575 5.04602,-28.28783 1.67254,-1.95399 3.5406,-3.55271 4.15123,-3.55271 0.61064,0 1.32893,-0.56986 1.59621,-1.26636 0.26726,-0.6965 1.13279,-1.26636 1.92338,-1.26636 0.79059,0 2.07309,-0.57526 2.85001,-1.27835 1.67793,-1.51851 8.86761,-3.49376 15.25055,-4.18986 20.03695,-2.18512 27.20316,-4.50716 29.87895,-9.68158 4.4567,-8.61829 -4.07166,-16.70558 -17.26296,-16.37017 -9.99416,0.25411 -14.97028,2.83716 -17.86557,9.27382 -1.46652,3.26028 -1.83913,3.52411 -5.37429,3.80527 -2.08919,0.16616 -6.874,0.16244 -10.63292,-0.008 l -6.8344,-0.31037 0.54154,-3.91703 c 0.70566,-5.10401 1.89159,-8.13443 5.00196,-12.78154 2.93823,-4.38993 4.71115,-5.84121 9.28207,-7.59816 1.81203,-0.69649 3.83033,-2.07699 4.48511,-3.06777 1.03514,-1.56634 1.0193,-1.97262 -0.12142,-3.11333 -1.09988,-1.09988 -3.81721,-1.29384 -16.81244,-1.20002 l -15.50053,0.11191 -9.18574,9.57379 c -5.05217,5.26559 -13.45971,13.94179 -18.68345,19.28046 -5.22373,5.33867 -9.49769,9.95457 -9.49769,10.25756 0,0.99534 6.06907,12.42417 7.97221,15.0127 1.02417,1.393 3.16355,5.00212 4.75417,8.02028 1.59063,3.01816 3.20153,5.62237 3.57979,5.78715 0.37826,0.16479 1.05044,1.11456 1.49375,2.1106 0.4433,0.99605 2.67786,4.85027 4.96568,8.56492 2.28782,3.71466 5.39037,9.22332 6.89458,12.24148 1.50421,3.01815 3.27753,6.03298 3.94072,6.6996 1.96005,1.97019 -1.51426,2.68711 -13.57896,2.80199 -9.64371,0.0918 -10.96338,-0.0714 -12.395,-1.53351 -0.88121,-0.89996 -4.53407,-6.76504 -8.11746,-13.03352 -3.58339,-6.26848 -7.61643,-13.29677 -8.96231,-15.61843 -1.34588,-2.32166 -3.00079,-5.44844 -3.67755,-6.9484 -0.67678,-1.49997 -2.20343,-3.36469 -3.39256,-4.14385 l -2.16208,-1.41663 -5.42673,5.83232 -5.42674,5.83232 -0.0907,5.48755 c -0.26958,16.30308 -0.57752,23.49919 -1.03747,24.2434 -0.62216,1.00667 -14.61537,2.00867 -18.72901,1.34113 l -2.94716,-0.47807 0,-49.29845 0,-49.29846 -2.16556,-0.82334 c -3.22024,-1.22434 -22.30196,-1.01933 -24.85011,0.26697 -2.05157,1.03563 -2.1224,1.37176 -2.53272,12.01797 l -0.42212,10.95254 -10.34986,-0.0783 c -5.69243,-0.043 -10.50862,-0.23704 -10.70267,-0.43108 -0.19404,-0.19404 -0.49327,-5.00152 -0.66496,-10.68328 -0.20459,-6.77026 -0.67651,-10.69503 -1.36935,-11.38828 -0.78266,-0.7831 -6.64788,-1.10088 -22.58627,-1.22373 l -21.52908,-0.16594 0.5526,1.85442 c 0.88236,2.96107 2.84902,5.6535 4.12954,5.6535 1.46293,0 6.84997,6.15253 8.8704,10.13087 0.82534,1.62516 1.78018,4.47447 2.12185,6.3318 0.90438,4.91612 0.55066,74.95355 -0.38326,75.88747 -0.94494,0.94494 -17.85924,1.24333 -20.25438,0.3573 -1.67117,-0.61822 -1.70552,-1.2925 -1.70552,-33.48038 0,-36.88186 0.0294,-36.67651 -6.09122,-42.61632 -3.35982,-3.2606 -3.4257,-3.28185 -10.27234,-3.31334 -8.04633,-0.037 -10.966,1.13892 -14.60826,5.88362 -5.00931,6.5255 -4.88719,5.55681 -5.16502,40.97103 l -0.25665,32.71429 -5.2309,0.18551 c -10.31646,0.36586 -15.29879,-0.14141 -16.44732,-1.67457 -0.8417,-1.12358 -1.0682,-8.37251 -1.00836,-32.27217 0.0425,-16.95271 -0.19715,-32.15278 -0.53241,-33.77794 -1.61331,-7.82029 -7.10066,-11.81936 -16.21801,-11.81936 -6.85617,0 -9.30316,0.75875 -13.43746,4.1666 -1.63505,1.34773 -3.49348,2.25063 -4.12985,2.00643 -0.63637,-0.2442 -1.15704,-0.0235 -1.15704,0.49057 0,0.51401 0.3289,0.93456 0.73088,0.93456 0.40591,0 0.42226,1.59532 0.0368,3.58802 -0.38176,1.97341 -0.71066,17.90712 -0.73088,35.40824 -0.0274,23.78488 -0.29231,31.97816 -1.04873,32.44565 -1.17404,0.72559 -20.8305,0.70765 -21.55783,-0.0197 -0.26832,-0.26831 -0.53363,-22.50496 -0.58959,-49.41477 -0.056,-26.90981 -0.40819,-49.2335 -0.78277,-49.6082 -0.37456,-0.3747 -6.32343,-0.77377 -13.2197,-0.88683 -10.44148,-0.17118 -12.75965,0.0154 -13.85984,1.1156 -1.16836,1.1683 -1.32121,6.97912 -1.32121,50.22674 l 0,48.9056 -4.43226,0.0577 c -2.43774,0.0317 -6.2351,0.18929 -8.43856,0.35013 -2.20347,0.16086 -5.05278,0.008 -6.3318,-0.33934 -2.11913,-0.57574 -2.33334,-1.00012 -2.41398,-4.78239 -0.13475,-6.31984 -0.10447,-6.26118 -3.23158,-6.26118 -2.16485,0 -3.0347,0.43087 -3.43853,1.70324 -0.58825,1.85341 -5.42578,6.72894 -6.68276,6.73525 -0.42777,0.003 -1.37754,0.51253 -2.1106,1.13419 -3.11134,2.63849 -10.90117,4.13236 -19.74391,3.78634 -7.66859,-0.30006 -9.21482,-0.63956 -14.21441,-3.12096 -8.56792,-4.25242 -11.03534,-7.50862 -14.15534,-18.68045 -1.67017,-5.98043 -1.76815,-8.35641 -1.76563,-42.81546 0.003,-34.76704 -0.0716,-36.52339 -1.575,-37.32801 -2.42106,-1.29571 -39.544144,-0.90535 -42.955962,0.45169 -1.509078,0.60023 -2.743779,1.44615 -2.743779,1.87982 0,0.76451 8.588585,5.20735 10.066497,5.20735 1.0418,0 5.690534,5.44525 7.291046,8.5403 1.715947,3.31828 3.727435,9.91418 3.739313,12.26162 0.0089,1.76077 -0.272284,1.80354 -11.100258,1.68848 l -11.109393,-0.11805 -0.921022,-2.59075 c -2.56787,-7.22319 -7.894692,-10.07284 -18.82905,-10.07284 -6.577752,0 -8.335447,0.30637 -11.397235,1.9866 -2.152495,1.18124 -4.224298,3.17351 -5.110494,4.91431 -1.432408,2.81377 -1.428547,3.06757 0.0992,6.52131 2.256414,5.10099 4.729277,6.18611 25.452038,11.16864 3.018157,0.72567 7.254648,1.63427 9.414425,2.01912 10.542527,1.87856 22.110961,9.93938 25.023393,17.43617 1.611122,4.14713 1.894178,19.82474 0.367126,20.33376 -0.569448,0.18982 -1.039048,1.16826 -1.043556,2.17431 -0.0141,3.14252 -6.837609,10.70782 -12.584093,13.95208 -6.139102,3.46591 -11.35347,4.42302 -25.820613,4.73942 -7.89364,0.17263 -15.491797,0.13367 -16.884792,-0.0866 z M 604.59825,339.79485 c 0.28698,-0.46433 0.14186,-0.84424 -0.32247,-0.84424 -0.46433,0 -1.07903,0.37991 -1.366,0.84424 -0.28698,0.46433 -0.14186,0.84424 0.32247,0.84424 0.46433,0 1.07903,-0.37991 1.366,-0.84424 z m -9.28663,-5.33443 c 13.12332,-3.23853 18.33323,-10.41407 18.48688,-25.46177 l 0.0864,-8.46094 -2.79892,-0.26866 c -1.53942,-0.14777 -3.38349,0.21647 -4.09794,0.80941 -0.71446,0.59295 -3.25402,1.3353 -5.64347,1.64969 -13.18783,1.73514 -22.31596,5.2402 -25.01341,9.60476 -3.52714,5.70704 -2.95763,15.06534 1.15177,18.92591 2.16803,2.03676 8.02671,4.18854 11.4969,4.22258 1.16083,0.0114 4.01014,-0.44805 6.3318,-1.02098 z m -425.07466,-1.41948 c 0,-0.46434 -0.16753,-0.84424 -0.37229,-0.84424 -0.20476,0 -0.60709,0.3799 -0.89407,0.84424 -0.28697,0.46433 -0.11944,0.84424 0.3723,0.84424 0.49173,0 0.89406,-0.37991 0.89406,-0.84424 z m -4.54451,-2.87224 c 4.5452,-2.11637 7.3433,-5.18886 10.45462,-11.47984 1.85477,-3.75028 1.87702,-4.22718 1.73203,-37.12764 -0.0808,-18.33071 -0.34575,-33.52703 -0.58882,-33.76958 -0.24306,-0.24257 -8.97172,-0.44103 -19.39702,-0.44103 -15.9288,0 -19.08345,0.20218 -19.75908,1.26636 -1.14986,1.81111 -0.91437,64.15971 0.26544,70.27494 0.73241,3.79629 1.60584,5.50142 4.03113,7.86966 5.83925,5.70188 15.34363,7.09398 23.2617,3.40713 z m 311.61909,-38.16133 c -0.28053,-0.28053 -1.00869,-0.31052 -1.61812,-0.0666 -0.67348,0.2695 -0.47344,0.46955 0.51006,0.51005 0.88996,0.0366 1.3886,-0.16287 1.10806,-0.44341 l 0,-3e-5 z m 5.66344,-9.62687 c 2.29264,-2.78265 4.47711,-5.05938 4.85438,-5.05938 0.37727,0 0.68595,-0.5305 0.68595,-1.1789 0,-0.6484 1.2347,-2.27466 2.74377,-3.61392 1.50908,-1.33925 3.86826,-3.9272 5.24262,-5.75098 1.37437,-1.82379 4.60359,-5.55067 7.17604,-8.28197 2.57246,-2.73128 5.24706,-5.90636 5.94356,-7.0557 1.16111,-1.91605 1.1294,-2.19089 -0.38151,-3.30709 -1.30441,-0.96363 -4.82364,-1.19741 -16.88479,-1.12164 -8.38031,0.0527 -15.85436,0.42354 -16.609,0.82421 -1.20299,0.63871 -1.37033,2.99452 -1.35801,19.11738 0.008,10.71891 0.3595,18.82905 0.84226,19.44419 1.60108,2.0401 3.61569,0.99538 7.74473,-4.0162 z m 19.04816,-5.90362 c 0,-0.46433 -0.37991,-0.84424 -0.84424,-0.84424 -0.46433,0 -0.84424,0.37991 -0.84424,0.84424 0,0.46433 0.37991,0.84424 0.84424,0.84424 0.46433,0 0.84424,-0.37991 0.84424,-0.84424 z M 256.04215,262.98057 c 1.22771,-0.008 2.25407,-0.96135 3.21536,-2.98711 1.64974,-3.47659 7.14266,-7.457 9.20072,-6.66725 1.534,0.58864 1.946,-0.89457 0.49722,-1.78997 -0.49599,-0.30654 -0.70009,-1.08298 -0.45356,-1.72543 0.68579,-1.78714 -2.23534,-2.88232 -7.68793,-2.88232 -7.49407,0 -8.68575,1.19962 -8.68575,8.74354 0,3.72767 -0.41201,6.55544 -1.0553,7.24302 -0.86787,0.92761 -0.68043,1.03461 1.0553,0.6025 1.16083,-0.289 2.92211,-0.53064 3.91394,-0.53698 z m 59.75924,-2.93984 c 1.70023,-2.07491 5.16689,-5.01401 7.7037,-6.53134 4.91693,-2.94094 5.24892,-3.85468 2.0053,-5.51913 -1.93275,-0.99177 -21.87468,-1.38803 -25.39359,-0.50459 -2.96845,0.74525 -2.33345,2.84928 2.24028,7.42301 2.5253,2.52529 4.83503,5.56191 5.13272,6.74803 0.91395,3.64148 4.58899,2.92696 8.31159,-1.61598 z m 2.48281,2.5062 c 0.26727,-0.6965 0.11796,-1.26636 -0.33179,-1.26636 -0.44976,0 -0.81775,0.56986 -0.81775,1.26636 0,0.69649 0.14931,1.26636 0.33179,1.26636 0.1825,0 0.55047,-0.56987 0.81775,-1.26636 z m 276.6053,-0.42212 c 1.02403,-0.66178 0.90286,-0.82086 -0.63318,-0.83132 -1.04475,-0.007 -1.89954,0.36698 -1.89954,0.83132 0,1.05776 0.89594,1.05776 2.53272,0 z M 235.24342,258.2759 c 0,-0.7239 -0.38611,-1.07755 -0.85801,-0.7859 -0.47191,0.29165 -0.63945,0.88393 -0.3723,1.31618 0.72371,1.171 1.23031,0.95265 1.23031,-0.53028 z m 117.92601,-8.12874 c -0.26949,-0.67348 -0.46955,-0.47344 -0.51005,0.51006 -0.0366,0.88996 0.16288,1.3886 0.44341,1.10807 0.28053,-0.28055 0.31052,-1.0087 0.0666,-1.61813 l 3e-5,0 z m -177.02279,-6.59563 c 0,-0.46433 -0.37991,-0.84423 -0.84424,-0.84423 -0.46433,0 -0.84424,0.3799 -0.84424,0.84423 0,0.46434 0.37991,0.84424 0.84424,0.84424 0.46433,0 0.84424,-0.3799 0.84424,-0.84424 z m 133.16122,0.33418 c -0.28053,-0.28053 -1.0087,-0.31052 -1.61813,-0.0666 -0.67348,0.2695 -0.47343,0.46955 0.51006,0.51006 0.88997,0.0366 1.3886,-0.16288 1.10807,-0.44342 l 0,-3e-5 z m 50.88302,-0.33418 c 0,-0.46433 -0.5382,-0.84423 -1.19601,-0.84423 -0.6578,0 -1.36561,-0.47489 -1.57289,-1.0553 -0.2073,-0.58042 -0.673,-0.77955 -1.0349,-0.44253 -0.3619,0.33703 -0.17745,1.19182 0.40991,1.89954 1.20095,1.44705 3.39389,1.73299 3.39389,0.44252 z m 24.02477,0.0583 c 0.69472,-1.12407 -1.05617,-1.99428 -2.72448,-1.35409 -1.21639,0.46677 -1.24017,0.65186 -0.17063,1.32824 1.58398,1.00173 2.28811,1.00801 2.89511,0.0258 l 0,2e-5 z M 109.87383,242.7073 c 0.28697,-0.46434 -0.0481,-0.84424 -0.74459,-0.84424 -0.6965,0 -1.50115,0.3799 -1.78813,0.84424 -0.28697,0.46433 0.0481,0.84423 0.7446,0.84423 0.69649,0 1.50115,-0.3799 1.78812,-0.84423 z m 257.43842,0.0884 c 0.56069,-0.90722 -1.8854,-1.98197 -2.97635,-1.30773 -0.42244,0.26108 -0.76806,0.83217 -0.76806,1.2691 0,1.01171 3.1231,1.04394 3.74441,0.0387 l 0,-4e-5 z m -97.03289,-1.77693 c 0.84043,-0.92867 1.18424,-1.6764 0.76403,-1.66164 -0.98143,0.0345 -3.71887,2.10293 -3.71887,2.81 0,1.07215 1.45816,0.50544 2.95484,-1.14836 z"
     id="path3354"
     inkscape:connector-curvature="0" />
  <path
     style="fill:#000000"
     d="M 33.470144,350.25019 C 16.944098,346.99302 5.5027862,336.96088 4.2101983,324.59407 l -0.5289761,-5.06097 11.0782248,0 11.078224,0 1.800911,3.58802 c 4.415612,8.79738 8.334689,10.76406 21.449995,10.76406 8.063863,0 10.34759,-0.2916 13.039545,-1.66493 6.128866,-3.12672 8.149675,-7.62846 5.620159,-12.52001 -2.461303,-4.75963 -5.041673,-5.85189 -27.392967,-11.59536 -15.196845,-3.90502 -21.267587,-6.27472 -25.991765,-10.14583 -5.8700535,-4.81007 -7.42144,-8.57675 -7.4570119,-18.10521 -0.028224,-7.56006 0.136083,-8.32649 2.8633779,-13.35666 3.05531,-5.63515 8.283837,-10.87247 13.168015,-13.19017 3.387596,-1.60752 3.720096,-3.19949 1.05773,-5.06429 -1.368549,-0.95857 -3.980876,-1.31423 -9.652973,-1.31423 l -7.7766453,0 0.1552769,-11.53902 0.155277,-11.53902 8.8645164,-2.03836 c 19.623266,-4.51228 47.195866,-10.55341 52.764977,-11.56077 3.250322,-0.58792 9.708755,-1.93419 14.352073,-2.99171 22.507278,-5.12604 27.398178,-6.20355 43.900458,-9.67165 9.75097,-2.04925 21.33816,-4.5514 25.74931,-5.56033 4.41115,-1.00893 10.07484,-2.19048 12.58596,-2.62568 2.51112,-0.43519 4.84799,-0.96574 5.19303,-1.17899 0.34505,-0.21324 3.41924,-0.94679 6.83156,-1.6301 3.41231,-0.68331 8.6736,-1.79115 11.69176,-2.46188 3.01815,-0.67072 13.65557,-2.99961 23.63871,-5.17529 9.98313,-2.17569 26.69907,-5.81966 37.14654,-8.0977 20.74179,-4.5227 42.38412,-9.05667 47.69954,-9.99283 1.85733,-0.32712 4.70663,-1.01169 6.3318,-1.52126 1.62516,-0.50957 6.56396,-1.69931 10.97511,-2.64386 4.41115,-0.94456 15.23853,-3.28149 24.06083,-5.19319 26.38435,-5.71722 31.68453,-6.73135 35.18014,-6.73135 3.04367,0 20.16808,3.12088 34.89175,6.35894 16.23199,3.56976 36.62722,7.47962 39.24085,7.52264 2.59556,0.0427 3.00269,-0.24724 3.48813,-2.48435 0.30228,-1.39299 0.59454,-10.60576 0.64948,-20.47281 l 0.0999,-17.94009 10.84134,0 10.84134,0 0.55589,16.59843 c 0.30574,9.12914 0.5559,19.55419 0.5559,23.16677 0,3.61258 0.31269,6.76158 0.69487,6.99778 0.38218,0.2362 2.94656,0.81419 5.69862,1.28442 4.91434,0.83969 33.06801,6.43968 44.68301,8.88781 13.59997,2.8665 30.70515,6.35768 35.03594,7.15086 4.2732,0.78262 53.69125,10.85795 68.38341,13.94197 3.48249,0.73101 6.42678,1.32941 6.54286,1.32979 0.69111,0.002 0.0745,43.42305 -0.63546,44.74966 -0.56588,1.05734 -0.56588,1.7552 0,2.10492 0.46558,0.28776 0.84652,1.07063 0.84652,1.73972 0,0.95411 -1.50242,1.23468 -6.96498,1.30069 -9.05898,0.10945 -11.18617,0.71676 -11.18617,3.19367 0,1.53478 0.92045,2.32445 4.44715,3.81529 5.42197,2.29202 10.54398,7.12259 11.999,11.31625 0.76947,2.21774 1.25589,13.24059 1.68373,38.15469 0.60823,35.41887 0.86235,38.09919 3.93411,41.49344 2.07258,2.29019 -0.0265,2.81811 -11.75714,2.95695 -12.13526,0.14361 -12.50274,-0.0351 -13.71531,-6.67067 -0.37557,-2.05521 -1.03972,-3.1659 -1.8931,-3.1659 -0.72302,0 -3.81498,1.81733 -6.87103,4.03852 -9.24743,6.72117 -13.00839,7.93131 -24.89628,8.01075 -9.43291,0.0631 -10.57169,-0.10544 -14.98807,-2.21734 -5.90783,-2.82512 -9.37091,-6.28971 -12.33724,-12.34261 -1.96964,-4.01913 -2.28673,-5.71782 -2.28919,-12.26351 -0.003,-10.01948 1.86171,-15.46151 7.09342,-20.69321 6.88317,-6.88318 12.80579,-8.91945 35.57039,-12.22954 11.52251,-1.67543 16.58227,-3.8488 18.78346,-8.06822 4.40724,-8.44818 -3.45258,-15.99521 -16.65814,-15.99521 -10.00148,0 -15.1297,2.50615 -18.11234,8.85142 -1.63176,3.47142 -2.07454,3.8231 -4.9535,3.93432 -6.30063,0.24341 -17.99553,0.0995 -18.32045,-0.22541 -0.55517,-0.55516 1.7552,-9.5245 3.28232,-12.74267 2.42277,-5.10562 7.0202,-9.72723 11.89761,-11.96018 3.44052,-1.57512 4.62226,-2.5651 4.62226,-3.87222 0,-2.76471 -2.90569,-3.28673 -18.43177,-3.31138 l -14.40114,-0.0229 -2.22728,2.70951 c -1.225,1.49024 -7.22934,7.8412 -13.34298,14.11325 -6.11365,6.27205 -13.52162,13.91218 -16.46215,16.97807 l -5.34644,5.57433 3.01986,5.81641 c 1.66091,3.19902 4.44671,8.1444 6.19066,10.98974 7.8717,12.84301 16.6199,27.53451 20.29553,34.08381 1.17268,2.08949 3.21304,5.12034 4.53413,6.73521 1.3211,1.61487 2.40199,3.19284 2.40199,3.5066 0,0.31375 -6.31803,0.51212 -14.04008,0.44082 l -14.0401,-0.12962 -4.46923,-7.40631 c -2.45807,-4.07347 -4.59299,-7.68259 -4.74424,-8.02028 -2.36378,-5.27721 -14.85741,-25.8088 -16.11412,-26.48137 -1.49105,-0.79799 -2.35633,-0.19787 -7.03715,4.88061 l -5.33707,5.79048 -0.0344,10.2181 c -0.0189,5.61995 -0.27312,12.50244 -0.56493,15.29443 l -0.53059,5.07633 -7.40322,0.55887 c -4.07176,0.30738 -8.96175,0.30965 -10.86664,0.005 l -3.46343,-0.55386 0,-49.3066 c 0,-46.16474 -0.0941,-49.34528 -1.47742,-49.9133 -2.74916,-1.12892 -25.34898,-0.7132 -26.55225,0.48841 -0.7545,0.75346 -1.18354,4.51477 -1.37527,12.05697 l -0.27868,10.96189 -9.93604,-0.10917 c -5.46481,-0.06 -10.3156,-0.35693 -10.77953,-0.65975 -0.46392,-0.30281 -1.09196,-5.28135 -1.39564,-11.06341 -0.30369,-5.78207 -0.87692,-10.83762 -1.27387,-11.23457 -0.39694,-0.39694 -10.50658,-0.94472 -22.46585,-1.21728 l -21.74413,-0.49557 0.60559,2.02137 c 0.93413,3.11801 2.87608,5.82046 4.18253,5.82046 1.48011,0 6.7757,6.07728 9.1956,10.553 1.78606,3.30338 1.83127,4.23457 2.07549,42.74089 l 0.24966,39.36394 -5.3151,0.38525 c -2.9233,0.2119 -8.04624,0.21034 -11.38431,-0.003 l -6.06921,-0.38871 -0.27957,-33.87293 c -0.19648,-23.80581 -0.57848,-34.55382 -1.28533,-36.16394 -0.55317,-1.26005 -2.58585,-3.82443 -4.51707,-5.69862 -3.50102,-3.3977 -3.53088,-3.40768 -10.19054,-3.40768 -7.99397,0 -11.34961,1.24175 -14.4932,5.36321 -5.15959,6.76459 -5.45017,9.39716 -5.571,50.4724 l -0.0686,23.33238 -5.69862,0.32077 c -3.13423,0.17642 -8.16801,0.12432 -11.18617,-0.11579 l -5.48756,-0.43656 -0.42212,-34.19171 c -0.36675,-29.7072 -0.60537,-34.52388 -1.81933,-36.72442 -3.3536,-6.07911 -8.72748,-8.45901 -17.65784,-7.82005 -4.72443,0.33804 -6.36299,0.87519 -9.33351,3.05973 -1.98168,1.45735 -4.20262,2.64972 -4.93542,2.64972 -1.04559,0 -1.33047,0.95399 -1.32354,4.43226 0.005,2.43774 -0.0805,18.93255 -0.18981,36.65515 l -0.19861,32.22288 -5.69862,0.28034 c -3.13424,0.15418 -8.24783,0.0904 -11.36355,-0.14178 l -5.66492,-0.42212 -0.53684,-48.9659 c -0.29526,-26.93124 -0.85816,-49.30469 -1.25088,-49.71877 -1.20142,-1.26671 -25.0068,-1.12055 -26.29961,0.16148 -0.88141,0.87405 -1.15324,11.01762 -1.33714,49.89411 l -0.23082,48.79702 -8.81562,0.5394 c -11.95409,0.73141 -12.93869,0.28996 -13.26291,-5.9465 -0.2357,-4.53388 -0.41148,-4.91004 -2.40301,-5.14216 -1.65326,-0.19271 -2.78721,0.54409 -4.91785,3.19537 -5.5994,6.96771 -13.61316,10.14079 -25.61098,10.14079 -15.49671,0 -24.69852,-5.82327 -29.62266,-18.74637 -1.58882,-4.16977 -1.73701,-7.08994 -2.20477,-43.44724 -0.27582,-21.43735 -0.8209,-39.29302 -1.2113,-39.67926 -0.3904,-0.38623 -10.12224,-0.66438 -21.626322,-0.6181 -17.50579,0.0704 -21.223713,0.29932 -22.800527,1.40377 l -1.884031,1.31963 1.982238,1.29625 c 1.090232,0.71294 3.759336,2.08139 5.931343,3.04099 3.902608,1.7242 7.67273,5.64044 10.212001,10.60777 1.644682,3.21734 3.961259,11.96532 3.334538,12.59205 -0.258582,0.25857 -5.359128,0.47014 -11.334554,0.47014 l -10.864411,0 -1.549073,-3.58802 c -2.535049,-5.87177 -6.893369,-8.57177 -15.462136,-9.57885 -14.308008,-1.68163 -24.791608,7.43234 -17.929693,15.58726 2.751583,3.27008 7.769036,5.09615 24.447911,8.89766 19.791443,4.51094 28.688819,9.45242 33.584689,18.65246 1.485026,2.79056 1.803701,4.87225 1.835225,11.9882 0.02575,5.80882 -0.305286,8.95468 -1.017149,9.66654 -0.580415,0.58042 -1.058989,1.64416 -1.063497,2.36387 -0.01174,1.87643 -5.226102,8.17431 -9.569944,11.55857 -5.949841,4.63548 -12.911298,6.1831 -29.679001,6.598 -7.893641,0.19532 -15.301843,0.16794 -16.462673,-0.0609 l 0,10e-6 z m 494.513366,-3.48107 c -2.66991,-0.16753 -7.03885,-0.16753 -9.70876,0 -2.66991,0.16754 -0.48544,0.30462 4.85438,0.30462 5.33982,0 7.52429,-0.13708 4.85438,-0.30462 z m 76.19262,-6.97427 c 0,-0.46433 -0.16753,-0.84424 -0.37229,-0.84424 -0.20476,0 -0.60709,0.37991 -0.89406,0.84424 -0.28698,0.46433 -0.11945,0.84424 0.37229,0.84424 0.49173,0 0.89406,-0.37991 0.89406,-0.84424 z m -9.96136,-5.15697 c 9.08478,-1.90024 15.36479,-6.84362 17.9298,-14.11362 1.41475,-4.00981 2.54795,-15.38076 1.82134,-18.27583 -0.57682,-2.29825 -3.4187,-2.891 -6.34697,-1.32384 -0.83139,0.44495 -5.46029,1.6045 -10.28643,2.57677 -11.08086,2.23236 -17.09444,4.58745 -19.73905,7.73038 -5.54869,6.59425 -4.31038,18.07228 2.31961,21.50079 5.67344,2.93384 7.94059,3.23588 14.3017,1.90535 z m -423.97781,-1.59694 c 0,-0.46434 -0.16753,-0.84424 -0.37229,-0.84424 -0.20476,0 -0.60709,0.3799 -0.89407,0.84424 -0.28697,0.46433 -0.11944,0.84424 0.3723,0.84424 0.49173,0 0.89406,-0.37991 0.89406,-0.84424 z m -6.40449,-2.21644 c 5.06534,-1.72593 9.41367,-6.02848 11.99766,-11.87134 1.99847,-4.5189 2.00499,-4.64046 2.00499,-37.38509 0,-20.74294 -0.3077,-33.04162 -0.83481,-33.36739 -0.45915,-0.28377 -9.02869,-0.55051 -19.04344,-0.59274 -13.08714,-0.0552 -18.49193,0.207 -19.21588,0.93224 -1.16988,1.17197 -1.41686,63.46898 -0.27929,70.44673 0.52604,3.22669 1.43178,4.86097 4.26331,7.69249 5.32714,5.32715 13.1371,6.86088 21.10746,4.1451 z m 319.50007,-48.9361 c 2.85052,-3.05998 5.18277,-5.74627 5.18277,-5.96955 0,-0.37388 4.62867,-5.67875 15.74901,-18.04973 5.4862,-6.1032 6.69752,-8.25074 5.38886,-9.55385 -1.14512,-1.14026 -33.24425,-1.38315 -34.36481,-0.26003 -0.84973,0.85168 -0.92746,35.82439 -0.0843,37.91934 1.02254,2.54058 2.77682,1.65871 8.12846,-4.08618 l -3e-5,0 z m 18.6906,-5.41152 c 0,-0.46433 -0.37991,-0.84424 -0.84424,-0.84424 -0.46433,0 -0.84424,0.37991 -0.84424,0.84424 0,0.46433 0.37991,0.84424 0.84424,0.84424 0.46433,0 0.84424,-0.37991 0.84424,-0.84424 z M 255.1415,262.96905 c 1.44077,0 2.63171,-0.95165 4.09825,-3.27479 2.37755,-3.76629 7.26166,-7.11895 9.25595,-6.35367 1.4721,0.56489 1.90397,-0.91177 0.5173,-1.76878 -0.46433,-0.28697 -0.84424,-1.21485 -0.84424,-2.06196 0,-1.8542 -2.24228,-2.55425 -8.23133,-2.56983 -6.37834,-0.0166 -7.80922,1.65195 -7.80922,9.10626 0,3.42326 -0.42603,6.19998 -1.0553,6.87817 -0.86342,0.93055 -0.77412,1.038 0.49117,0.59097 0.85055,-0.30051 2.4604,-0.54637 3.57742,-0.54637 z m 60.59203,-2.97732 c 1.88868,-2.10186 5.25603,-4.99077 7.48299,-6.41981 2.22696,-1.42903 4.04902,-3.11065 4.04902,-3.73691 0,-0.62627 -1.42466,-1.53432 -3.1659,-2.01789 -3.39263,-0.94218 -20.49106,-1.20005 -23.63871,-0.35651 -2.6372,0.70674 -2.37172,2.92298 0.7011,5.85279 1.43037,1.36379 3.77379,4.28417 5.20763,6.48975 1.65283,2.54245 3.21505,4.01014 4.26842,4.01014 0.91381,0 3.20676,-1.7197 5.09545,-3.82156 z m 1.97784,1.97478 c -0.2695,-0.67347 -0.46955,-0.47343 -0.51006,0.51007 -0.0366,0.88996 0.16288,1.38859 0.44341,1.10806 0.28054,-0.28054 0.31052,-1.0087 0.0666,-1.61813 l 4e-5,0 z m 276.75601,0.1583 c 0.28697,-0.46434 -0.0705,-0.84424 -0.79441,-0.84424 -0.72391,0 -1.31619,0.3799 -1.31619,0.84424 0,0.46433 0.35748,0.84424 0.79441,0.84424 0.43693,0 1.02922,-0.37991 1.31619,-0.84424 z M 176.14664,243.55153 c 0,-0.46433 -0.37991,-0.84423 -0.84424,-0.84423 -0.46433,0 -0.84424,0.3799 -0.84424,0.84423 0,0.46434 0.37991,0.84424 0.84424,0.84424 0.46433,0 0.84424,-0.3799 0.84424,-0.84424 z m 184.03766,0.21106 c -0.003,-0.34824 -0.9534,-1.07231 -2.1106,-1.60904 -2.23849,-1.03825 -2.76504,-0.44497 -1.09093,1.22914 1.12232,1.12231 3.21183,1.37027 3.20153,0.3799 z m 24.03135,-0.15272 c 0.69472,-1.12407 -1.05617,-1.99428 -2.72448,-1.35409 -1.21639,0.46677 -1.24017,0.65186 -0.17063,1.32824 1.58398,1.00173 2.28811,1.00801 2.89511,0.0258 l 0,2e-5 z M 109.45171,242.7073 c 0,-0.46434 -0.37991,-0.84424 -0.84424,-0.84424 -0.46433,0 -0.84424,0.3799 -0.84424,0.84424 0,0.46433 0.37991,0.84423 0.84424,0.84423 0.46433,0 0.84424,-0.3799 0.84424,-0.84423 z m 257.28203,-0.21106 c -0.19348,-0.58042 -0.85831,-1.0553 -1.47742,-1.0553 -0.61911,0 -1.28395,0.47488 -1.47742,1.0553 -0.20925,0.62776 0.38929,1.05529 1.47742,1.05529 1.08813,0 1.68667,-0.42753 1.47742,-1.05529 z m -96.85956,-1.07571 c 1.63138,-1.9657 0.46733,-2.33614 -1.27861,-0.40689 -0.84301,0.93151 -1.14047,1.69366 -0.66103,1.69366 0.47945,0 1.35228,-0.57904 1.93964,-1.28677 z"
     id="path3356"
     inkscape:connector-curvature="0" />
  <path
     style="fill:#000000"
     d="M 32.203785,350.26836 C 15.993409,346.16739 5.4548163,336.50193 4.2101983,324.59407 l -0.5289761,-5.06097 11.3113838,0 11.311382,0 1.928753,4.20429 c 3.522376,7.67805 8.802014,10.14779 21.693271,10.14779 7.378283,0 9.1349,-0.27983 12.315608,-1.96182 6.928315,-3.66378 8.313441,-9.57375 3.458628,-14.75706 -2.401027,-2.56349 -6.279321,-3.94572 -24.092064,-8.58645 -20.128537,-5.24405 -26.254562,-8.1657 -31.47627,-15.01183 -1.9664276,-2.57815 -2.8700036,-4.85031 -3.3011619,-8.30119 -1.6740604,-13.39872 3.0230588,-23.57514 14.3526199,-31.09527 7.338793,-4.87121 4.839695,-7.24307 -7.631643,-7.24307 l -7.1449013,0 0.2348839,-11.58608 0.234884,-11.58608 11.3972354,-2.64454 c 15.041615,-3.49016 45.647211,-10.1676 51.498617,-11.23583 2.553825,-0.46622 13.191244,-2.7868 23.63871,-5.15682 10.447462,-2.37004 21.654742,-4.83833 24.905072,-5.48512 5.40814,-1.07616 35.14893,-7.46249 47.27742,-10.15202 2.78599,-0.6178 10.38414,-2.28569 16.88479,-3.70643 6.50064,-1.42073 20.55723,-4.50113 31.23687,-6.84533 29.03351,-6.37291 45.89057,-9.98962 70.494,-15.12461 9.05447,-1.88976 17.01915,-3.64479 17.69927,-3.90007 0.68013,-0.25527 9.22805,-2.18095 18.99539,-4.27929 9.76735,-2.09833 21.17797,-4.55788 25.35696,-5.46567 18.94787,-4.11599 23.74966,-4.9851 27.54224,-4.9851 3.38177,0 24.66623,3.84636 37.46421,6.77024 12.13397,2.77217 34.75582,6.79266 36.99743,6.5754 2.64765,-0.25661 2.68864,-0.32988 3.21634,-5.74749 0.29397,-3.01815 0.5789,-12.04096 0.63318,-20.05069 l 0.0987,-14.56313 10.84423,0 10.84424,0 0.553,11.53072 c 0.30415,6.34189 0.553,16.76376 0.553,23.1597 0,10.34324 0.16335,11.67807 1.47742,12.073 0.81258,0.24421 15.72396,3.30161 33.13641,6.79423 40.84728,8.19322 117.87397,23.79487 121.14838,24.53843 6.13367,1.39286 5.57488,-1.29148 5.43678,26.1173 l -0.12455,24.71766 -8.05304,0.48046 c -11.65347,0.69525 -13.42319,3.08294 -5.13214,6.92425 2.28891,1.06046 5.50906,3.15423 7.1559,4.65283 5.53967,5.04098 5.56008,5.18271 6.28763,43.64549 0.36185,19.12983 1.04285,36.17565 1.51333,37.87957 0.47048,1.70393 1.49363,3.80326 2.27367,4.66521 1.34319,1.48421 1.29774,1.61298 -0.85872,2.43286 -1.25233,0.47614 -6.57467,0.86571 -11.8274,0.86571 -10.72993,0 -11.22962,-0.24195 -12.73731,-6.16746 -0.47825,-1.87961 -1.27333,-3.55205 -1.76686,-3.71656 -0.49352,-0.16451 -3.33144,1.43414 -6.30649,3.55256 -7.73765,5.50968 -11.97513,7.27908 -19.65628,8.2077 -9.35089,1.13048 -16.45108,0.22476 -22.31902,-2.84707 -5.65347,-2.95955 -7.79085,-5.23218 -10.92736,-11.61884 -2.06258,-4.19988 -2.31476,-5.64316 -2.2993,-13.15964 0.0158,-7.66378 0.24933,-8.90497 2.53271,-13.45802 3.03836,-6.05845 9.10874,-11.32023 16.06067,-13.92128 2.66141,-0.99576 10.96,-2.74318 18.44129,-3.88315 15.55243,-2.3698 19.88759,-3.73746 22.79346,-7.19088 6.73754,-8.00714 0.16059,-16.63815 -13.3316,-17.49521 -10.16291,-0.64556 -16.40675,2.20604 -19.92333,9.0991 -1.8836,3.69216 -3.33749,4.11064 -14.35544,4.13199 -9.60185,0.0186 -9.72128,-0.0816 -8.00176,-6.71752 0.76472,-2.95115 1.95111,-6.45002 2.63642,-7.77526 2.03736,-3.93982 7.1317,-9.06981 10.33654,-10.40887 5.47479,-2.28752 7.61498,-5.43194 4.53285,-6.65979 -0.81258,-0.32371 -8.19837,-0.7377 -16.41286,-0.91999 l -14.93544,-0.33142 -1.80834,2.30708 c -1.83441,2.34033 -13.15582,14.215 -27.68022,29.03291 l -7.99106,8.15254 3.21605,5.77741 c 4.9641,8.91764 28.12707,47.55562 30.88584,51.52045 1.35134,1.94208 2.16684,3.70652 1.81223,3.92099 -0.3546,0.21446 -6.70407,0.33507 -14.10994,0.26802 l -13.4652,-0.12191 -5.2291,-8.86452 c -2.87601,-4.87548 -8.2139,-13.957 -11.86199,-20.18115 -3.64807,-6.22415 -7.29214,-11.72736 -8.09792,-12.22935 -1.22409,-0.7626 -2.36962,-0.0162 -6.96497,4.53833 l -5.49994,5.45104 -0.009,12.26587 c -0.005,6.74622 -0.23878,13.65365 -0.51928,15.34983 l -0.51,3.08395 -7.43884,0.58877 c -4.09136,0.32382 -8.98643,0.3273 -10.87794,0.008 l -3.43912,-0.58091 0,-47.57037 c 0,-28.86555 -0.32374,-48.42188 -0.82334,-49.73593 l -0.82335,-2.16556 -12.58111,0 c -10.07256,0 -12.7877,0.24891 -13.61715,1.24834 -0.634,0.76392 -1.21359,5.35981 -1.49361,11.84366 l -0.45758,10.59531 -10.64018,-0.23536 -10.64018,-0.23536 -0.84424,-10.73136 c -0.46433,-5.90226 -1.22414,-11.0818 -1.68848,-11.5101 -0.46433,-0.4283 -10.45539,-1.0449 -22.20236,-1.37021 l -21.35811,-0.5915 1.34779,3.23706 c 0.74129,1.7804 1.76333,3.38165 2.27122,3.55835 2.23537,0.77769 7.32583,6.29043 9.60111,10.39758 l 2.48045,4.47746 0.24974,39.39255 0.24973,39.39255 -6.29279,0.58968 c -3.46104,0.32433 -8.55049,0.32765 -11.3099,0.008 l -5.01709,-0.58229 -0.45325,-33.50133 c -0.50643,-37.43198 -0.46816,-37.17855 -6.42608,-42.55477 -3.26684,-2.94787 -3.87166,-3.16557 -8.78252,-3.16118 -7.46802,0.007 -11.49219,1.34744 -14.76355,4.91893 -4.90538,5.35543 -5.28654,8.13999 -5.87004,42.88309 l -0.5264,31.34405 -5.87807,0.42057 c -3.23294,0.23132 -8.30151,0.22605 -11.26349,-0.0117 l -5.38542,-0.43248 -0.0276,-29.64386 c -0.0152,-16.30413 -0.35596,-32.1896 -0.75726,-35.30106 -1.31512,-10.19668 -5.56048,-13.72938 -16.52203,-13.74852 -6.36346,-0.0111 -7.0517,0.17368 -11.90472,3.19651 l -5.15079,3.20831 -0.54783,8.95344 c -0.30131,4.92439 -0.54783,21.19847 -0.54783,36.16463 l 0,27.21118 -5.69862,0.31463 c -3.13424,0.17305 -8.31575,0.12094 -11.51447,-0.11579 l -5.81585,-0.43042 -0.33095,-46.01106 c -0.18202,-25.30608 -0.53388,-47.63519 -0.7819,-49.62024 l -0.45096,-3.60918 -13.24188,0.23223 -13.24187,0.23221 -0.53868,8.02028 c -0.29628,4.41115 -0.58121,26.6758 -0.63318,49.477 l -0.0945,41.45672 -5.69862,0.5382 c -14.17887,1.3391 -16.25161,0.6733 -16.25161,-5.22033 0,-6.91293 -2.54406,-7.8005 -7.35307,-2.56534 -6.5701,7.1523 -13.89672,10.02435 -25.57228,10.02435 -15.689,0 -25.31968,-6.10081 -29.98596,-18.99539 -1.35663,-3.74885 -1.58576,-8.51963 -2.04764,-42.6341 -0.28603,-21.1271 -0.81606,-38.88779 -1.17785,-39.46821 -1.01857,-1.63412 -41.835652,-1.50262 -44.084845,0.14204 -2.010008,1.46975 -1.766328,1.72309 4.831112,5.02262 7.887745,3.94482 11.880693,9.93484 14.5659,21.85101 l 0.523158,2.32166 -11.743913,0 -11.743917,0 -0.569775,-2.27017 c -1.753378,-6.98601 -8.084537,-10.62213 -18.610922,-10.68866 -13.154872,-0.0831 -20.438769,6.54252 -15.712688,14.29276 2.235845,3.66653 5.749357,5.0708 24.066986,9.61904 17.973891,4.46289 24.736277,7.36014 30.085327,12.88967 5.225189,5.4015 6.183705,8.16639 6.25002,18.02853 0.03411,5.06988 -0.323124,9.00388 -0.881572,9.70876 -0.516387,0.65177 -1.167921,2.14794 -1.447854,3.32481 -0.605455,2.54544 -6.7211,9.12527 -11.261967,12.11678 -5.539322,3.64929 -11.954492,4.81171 -28.563273,5.17566 -8.357972,0.18314 -15.956129,0.14077 -16.884792,-0.0942 z M 597.86701,333.4537 c 5.05751,-1.42368 10.78007,-6.06865 13.11492,-10.64533 2.00751,-3.93504 3.68907,-18.74671 2.40145,-21.15265 -0.92819,-1.73434 -3.40805,-1.99223 -5.97041,-0.6209 -0.94468,0.50558 -6.06729,1.82122 -11.38358,2.92365 -16.43162,3.40739 -21.84433,7.85832 -21.69999,17.8441 0.0973,6.72865 2.80495,10.25008 9.58498,12.46559 4.01221,1.31105 7.02706,1.13507 13.95263,-0.81446 z m -432.17003,-3.64028 c 4.05564,-2.08539 7.13099,-5.33681 9.7236,-10.28032 1.97399,-3.76393 1.99481,-4.08807 2.25037,-35.03594 0.14187,-17.18028 0.0297,-32.47157 -0.24931,-33.98065 l -0.50727,-2.74378 -18.32395,0.0129 c -10.07818,0.007 -18.81457,0.32418 -19.41419,0.70459 -0.86922,0.55145 -1.04036,7.95081 -0.84424,36.50044 0.24521,35.69511 0.25215,35.81868 2.18809,38.93211 2.10925,3.39219 6.40847,6.44045 10.60177,7.51698 4.01098,1.02971 10.90587,0.26034 14.57513,-1.62636 l 0,1e-5 z m 312.53889,-43.12615 c 0.7859,-0.42061 5.60475,-5.614 10.70855,-11.54089 5.1038,-5.92688 11.86018,-13.63911 15.01417,-17.1383 8.03641,-8.91595 7.77807,-9.68953 -3.41828,-10.23535 -4.76238,-0.23216 -12.36054,-0.23216 -16.88479,0 l -8.22593,0.42212 -0.22805,18.5533 c -0.12544,10.20432 -0.0424,19.03717 0.18456,19.62857 0.49011,1.27722 0.9499,1.32732 2.84977,0.31055 z m 23.78727,-10.21039 c 0,-0.46433 -0.37991,-0.84424 -0.84424,-0.84424 -0.46433,0 -0.84424,0.37991 -0.84424,0.84424 0,0.46433 0.37991,0.84424 0.84424,0.84424 0.46433,0 0.84424,-0.37991 0.84424,-0.84424 z M 316.26888,259.38103 c 2.62594,-2.43774 6.21071,-5.52215 7.96615,-6.85422 4.94713,-3.75403 3.16264,-4.68783 -10.10521,-5.28791 -10.76337,-0.48679 -15.56843,0.19848 -15.56843,2.22028 0,0.4862 1.43822,2.49012 3.19605,4.45315 1.75784,1.96303 4.24657,4.99381 5.53052,6.73506 1.28397,1.74124 2.75568,3.1659 3.27048,3.1659 0.5148,0 3.0845,-1.99452 5.71044,-4.43226 z m -58.43379,1.71485 c 3.23301,-4.12208 7.2882,-7.52198 9.49916,-7.96417 2.22132,-0.44426 2.27798,-0.57278 1.18311,-2.68317 -1.40336,-2.70496 -2.98513,-3.38376 -8.06429,-3.46071 -6.2071,-0.094 -7.80015,1.73847 -8.32088,9.57168 l -0.4261,6.40969 2.32992,-8e-5 c 1.40217,-4e-5 2.91493,-0.74595 3.79908,-1.87324 z m 336.21017,1.02893 c 0,-0.46434 -0.16753,-0.84424 -0.37229,-0.84424 -0.20477,0 -0.6071,0.3799 -0.89407,0.84424 -0.28697,0.46433 -0.11944,0.84424 0.37229,0.84424 0.49174,0 0.89407,-0.37991 0.89407,-0.84424 z M 176.14664,243.55153 c 0,-0.46433 -0.37991,-0.84423 -0.84424,-0.84423 -0.46433,0 -0.84424,0.3799 -0.84424,0.84423 0,0.46434 0.37991,0.84424 0.84424,0.84424 0.46433,0 0.84424,-0.3799 0.84424,-0.84424 z m 182.83951,-0.44024 c -0.89477,-0.67694 -1.83354,-1.02411 -2.08615,-0.77148 -0.52992,0.52992 1.61427,2.03688 2.86876,2.01618 0.46433,-0.008 0.11216,-0.56777 -0.78261,-1.2447 z m 24.84344,0.58095 c 0,-1.09926 -1.00361,-1.83034 -1.82,-1.32578 -0.87313,0.53963 -0.12026,2.02931 1.02559,2.02931 0.43693,0 0.79441,-0.31659 0.79441,-0.70353 z M 109.45171,242.7073 c 0,-0.46434 -0.16753,-0.84424 -0.37229,-0.84424 -0.20476,0 -0.60709,0.3799 -0.89407,0.84424 -0.28697,0.46433 -0.11944,0.84423 0.37229,0.84423 0.49174,0 0.89407,-0.3799 0.89407,-0.84423 z m 257.07097,0 c 0.28697,-0.46434 -0.0705,-0.84424 -0.79441,-0.84424 -0.72391,0 -1.31619,0.3799 -1.31619,0.84424 0,0.46433 0.35748,0.84423 0.79441,0.84423 0.43693,0 1.02921,-0.3799 1.31619,-0.84423 z m -96.66544,-1.68848 c 0,-0.46434 -0.16753,-0.84424 -0.37229,-0.84424 -0.20476,0 -0.60709,0.3799 -0.89407,0.84424 -0.28697,0.46433 -0.11944,0.84424 0.37229,0.84424 0.49174,0 0.89407,-0.37991 0.89407,-0.84424 z"
     id="path3358"
     inkscape:connector-curvature="0" />
  <path
     style="fill:#000000"
     d="m 466.56507,78.550943 c 0,-0.669956 -0.76301,-2.511318 -1.69559,-4.091914 -4.60104,-7.798189 -6.01752,-21.467967 -3.4739,-33.525006 0.9306,-4.411152 2.26845,-9.637214 2.97301,-11.613472 3.07348,-8.621078 11.38223,-14.654326 21.79676,-15.827327 5.14839,-0.57987 8.22479,-2.13684 12.29444,-6.2222407 3.43845,-3.45175 5.95649,-4.3277436 12.44009,-4.3277436 6.54188,0 9.14105,0.8344489 14.21321,4.5630571 2.64242,1.9424817 5.6142,7.0799422 5.6142,9.7055592 0,0.919759 0.3799,1.907083 0.84424,2.194057 1.02117,0.631118 1.13125,11.669514 0.13693,13.730349 -0.38902,0.80628 -1.24381,2.568776 -1.89954,3.916657 -1.45703,2.995002 -4.43281,5.286311 -8.82767,6.797194 -3.29279,1.132005 -3.32782,1.190819 -4.87715,8.187628 -1.7463,7.886311 -3.19956,11.13773 -5.15868,11.541595 -1.83147,0.377551 -1.66156,-1.719392 0.27357,-3.376303 1.41332,-1.210124 2.3013,-4.77836 3.72439,-14.966031 0.091,-0.651518 1.64108,-1.949907 3.4446,-2.885307 8.49445,-4.405668 12.50237,-11.406013 10.59958,-18.513524 -3.64792,-13.626172 -11.97427,-20.80733 -21.23438,-18.3138406 -4.12518,1.1107954 -10.71647,5.7603446 -10.76255,7.5919966 -0.0664,2.639578 -1.79675,3.220335 -8.37156,2.809778 -5.54555,-0.346287 -6.95517,-0.133453 -10.19278,1.538972 -4.1157,2.126017 -10.58484,9.771422 -11.45637,13.539449 -0.29411,1.271588 -0.88543,2.528709 -1.31404,2.793603 -0.42861,0.264895 -0.77928,1.427841 -0.77928,2.584326 0,1.156485 -0.60591,3.274401 -1.34647,4.70648 -1.78251,3.446985 -1.44688,24.093483 0.42835,26.350936 2.04599,2.463007 4.48696,1.282516 6.80142,-3.289258 2.83772,-5.605392 5.05836,-8.020276 7.37516,-8.020276 1.04946,0 4.32458,1.479042 7.27804,3.286761 6.77634,4.147577 13.6057,5.817142 18.18405,4.445435 4.23185,-1.267893 5.17991,-1.233188 5.17991,0.189616 0,1.543594 -2.64767,2.1835 -9.09249,2.197535 -4.45291,0.0097 -6.41158,-0.52468 -12.33544,-3.36543 -3.87311,-1.857328 -8.00718,-3.376959 -9.18682,-3.376959 -2.83692,0 -4.96982,3.436702 -7.97787,12.854598 -2.15563,6.749085 -3.61937,9.25204 -3.61937,6.18905 z"
     id="path3360"
     inkscape:connector-curvature="0" />
  <path
     style="fill:#000000"
     d="m 409.7468,347.56065 c -3.44845,-0.17918 -5.04442,-0.63727 -5.39398,-1.5482 -0.40273,-1.04949 -0.63366,-1.08114 -1.2232,-0.16765 -1.97453,3.05948 -2.41857,-2.4824 -2.35655,-29.41091 0.0556,-24.14654 0.23998,-28.07162 1.33832,-28.49309 2.6029,-0.99883 17.56502,-0.46044 19.0758,0.68642 1.35554,1.02899 1.47742,3.46321 1.47742,29.50545 l 0,28.38393 -1.89954,0.38698 c -3.73767,0.76145 -6.1923,0.90783 -11.01827,0.65707 z"
     id="path3362"
     inkscape:connector-curvature="0" />
  <path
     style="fill:#000000"
     d="M 27.062352,348.81665 C 20.224558,346.53089 14.8914,343.12875 10.464087,338.22824 6.2794887,333.59639 4.8717132,330.60911 4.05328,324.62459 l -0.6963055,-5.09149 11.4685665,0.003 11.468566,0.003 2.532719,4.8519 c 3.706312,7.10015 7.288973,8.84729 19.143633,9.33573 8.532695,0.35156 9.389656,0.23484 13.67714,-1.86283 3.338135,-1.6332 4.955218,-3.04108 5.984627,-5.2104 1.348723,-2.84222 1.332648,-3.13342 -0.366769,-6.64395 -2.37685,-4.90991 -3.64898,-5.44864 -29.060515,-12.30657 -15.253972,-4.11691 -21.937439,-7.17704 -26.510882,-12.13863 -4.2979355,-4.66271 -5.5353376,-9.02453 -5.055403,-17.82018 0.5432139,-9.95536 4.283755,-16.22659 13.928127,-23.35131 7.178634,-5.30316 6.097437,-6.54686 -6.303092,-7.25044 l -7.8092162,-0.44307 0,-11.54216 0,-11.54216 10.3419352,-2.30882 c 18.574025,-4.14663 44.828603,-9.87559 50.865438,-11.09925 3.250323,-0.65885 12.937972,-2.75188 21.528111,-4.65119 8.590138,-1.89931 30.43484,-6.66383 48.54378,-10.58782 18.10894,-3.92399 44.32258,-9.61969 58.25253,-12.6571 13.92996,-3.03741 43.75272,-9.49468 66.27281,-14.34949 22.5201,-4.85482 44.3648,-9.6008 48.54378,-10.54664 30.35363,-6.86997 55.78334,-12.05627 60.78526,-12.39693 5.0061,-0.34095 10.782,0.57675 37.77647,6.00212 37.40184,7.51703 40.6946,8.00623 41.4063,6.15157 0.27752,-0.72319 0.77329,-9.88646 1.10171,-20.36281 l 0.59713,-19.04791 10.72288,0 10.72286,0 0.546,6.45917 c 0.3003,3.55255 0.546,13.76354 0.546,22.6911 0,11.99131 0.2757,16.44324 1.0553,17.0408 0.58042,0.44488 9.03336,2.3788 18.78433,4.2976 9.75097,1.9188 40.33355,8.07603 67.96129,13.68272 27.62774,5.6067 54.03134,10.94963 58.67466,11.8732 4.64332,0.92356 9.86705,2.06166 11.60829,2.52911 l 3.1659,0.84991 0,24.79673 0,24.79675 -7.3871,0.54405 c -11.91474,0.87751 -14.04753,2.95479 -6.4736,6.3051 2.02799,0.89708 5.19316,2.84123 7.03372,4.32033 5.99413,4.81701 6.14651,5.7301 6.89638,41.32495 0.80748,38.32926 1.00913,40.78509 3.68016,44.82129 l 2.04973,3.09736 -3.11071,0.51433 c -1.71088,0.28289 -7.13583,0.51852 -12.05543,0.52362 -10.10533,0.0105 -10.69206,-0.29546 -12.46101,-6.49813 -1.2079,-4.23543 -1.45692,-4.19563 -9.68797,1.54842 -8.26713,5.76923 -12.52845,7.00897 -24.20398,7.04158 -8.35748,0.0234 -10.28981,-0.24072 -13.88348,-1.89729 -6.44888,-2.97274 -9.18753,-5.47907 -12.3394,-11.29268 -2.784,-5.13506 -2.90339,-5.71979 -2.90339,-14.21979 0,-7.98448 0.23298,-9.33895 2.3468,-13.64337 1.29074,-2.62837 3.84148,-6.12921 5.66831,-7.77963 6.65944,-6.01642 11.93353,-7.74687 34.75652,-11.40382 10.69454,-1.7136 15.32358,-3.51922 17.83251,-6.95579 1.95186,-2.67357 2.09995,-7.63961 0.3093,-10.37249 -3.15677,-4.81785 -14.81924,-7.60996 -23.29417,-5.57686 -5.11049,1.22599 -8.76891,4.03082 -11.02458,8.45229 -0.90972,1.78321 -2.45834,3.38867 -3.55099,3.68135 -2.88367,0.77242 -17.80653,0.62515 -19.0895,-0.1884 -0.90962,-0.57681 -0.85897,-1.67818 0.27916,-6.07037 0.76472,-2.95115 1.95111,-6.45002 2.63642,-7.77526 2.12031,-4.10024 7.18934,-9.09959 11.37912,-11.22271 4.70548,-2.38446 5.58733,-3.49568 4.01228,-5.05587 -0.87492,-0.86668 -4.85873,-1.17884 -16.41992,-1.28665 l -15.26473,-0.14235 -8.36621,8.75476 C 529.02006,261.14 520.5585,269.88626 514.818,275.76103 l -10.43725,10.68138 3.22047,5.7813 c 4.14902,7.44821 29.58259,49.8278 31.66738,52.76691 0.87426,1.2325 1.58956,2.47639 1.58956,2.76419 0,0.28779 -6.36345,0.4191 -14.14101,0.29179 l -14.14102,-0.23147 -4.7368,-8.02028 c -15.69629,-26.57675 -19.85706,-33.29464 -20.8013,-33.58534 -0.58034,-0.17867 -3.50106,2.02382 -6.4905,4.89442 l -5.43534,5.21929 -0.26342,15.04456 c -0.14488,8.2745 -0.57375,15.35392 -0.95305,15.73205 -0.3793,0.37813 -5.3181,0.69375 -10.97512,0.70139 l -10.28548,0.0139 -0.42212,-48.9659 c -0.23216,-26.93124 -0.72947,-49.44078 -1.10513,-50.0212 -0.84323,-1.30287 -23.50627,-1.49778 -25.88887,-0.22265 -1.33627,0.71514 -1.64156,2.38307 -2.16344,11.81936 l -0.60763,10.9867 -10.76593,0 -10.76593,0 -0.56164,-9.07557 c -0.81109,-13.10598 -0.95332,-13.59015 -4.1335,-14.07073 -1.47542,-0.22297 -11.32114,-0.62821 -21.87937,-0.90055 l -19.19677,-0.49515 0.84814,2.23079 c 0.46648,1.22694 3.23814,4.56443 6.15922,7.41663 9.05908,8.84545 8.55462,5.91648 8.83412,51.2924 l 0.24239,39.35266 -3.19723,0.52837 c -4.07114,0.6728 -13.62599,0.69844 -16.89152,0.0453 l -2.50812,-0.50162 -0.58957,-33.05691 c -0.32425,-18.1813 -0.94438,-34.39635 -1.37804,-36.03345 -0.43366,-1.6371 -2.30144,-4.45392 -4.1506,-6.25959 -2.89349,-2.8254 -4.00522,-3.33635 -7.97573,-3.66562 -7.22215,-0.59892 -12.58702,1.06343 -16.14621,5.00304 -1.66145,1.83901 -3.43383,4.36856 -3.93865,5.6212 -0.96126,2.38527 -2.2353,32.57165 -2.32898,55.18152 l -0.0548,13.22475 -6.25412,0.58606 c -3.43977,0.32233 -8.52007,0.32307 -11.28957,0.002 l -5.03545,-0.58443 -0.36593,-33.54506 -0.36593,-33.54505 -2.0634,-4.12007 c -2.84936,-5.68948 -6.52734,-7.48514 -15.21681,-7.42918 -7.24794,0.0467 -11.41319,1.83723 -14.09692,6.05999 -0.77814,1.22438 -1.74066,2.4584 -2.13892,2.74225 -0.39826,0.28386 -0.94042,16.12104 -1.2048,35.19373 l -0.48067,34.67764 -5.14651,0.47898 c -2.83057,0.26338 -7.99581,0.19237 -11.47829,-0.15784 l -6.3318,-0.63677 -0.18459,-43.47834 c -0.10152,-23.91309 -0.41887,-46.23267 -0.70521,-49.59908 l -0.52062,-6.12074 -12.4882,0 c -10.17759,0 -12.68646,0.23891 -13.55981,1.29123 -0.82745,0.99703 -1.16671,12.32415 -1.48889,49.71172 l -0.41727,48.42049 -3.79775,0.52054 c -5.86202,0.80348 -14.4686,0.61666 -16.28118,-0.3534 -1.19983,-0.64213 -1.63298,-1.77654 -1.63298,-4.27671 0,-3.58501 -1.18828,-6.66871 -2.56976,-6.66871 -0.45203,0 -3.13644,2.12786 -5.96536,4.72856 -7.24216,6.65793 -11.02592,8.1432 -21.92233,8.60537 -16.30064,0.6914 -25.57153,-3.87541 -31.11529,-15.32729 -2.85406,-5.89569 -3.30277,-11.88993 -3.73028,-49.83143 -0.31867,-28.28232 -0.62467,-35.50552 -1.52836,-36.07832 -0.62145,-0.39391 -9.86779,-0.68414 -20.547422,-0.64497 -25.376647,0.0931 -27.493025,0.69993 -18.799592,5.39048 5.652546,3.04984 7.848483,4.93877 10.390135,8.93751 1.691826,2.66173 5.454619,13.15568 5.454619,15.21225 0,0.41542 -5.223733,0.73973 -11.608295,0.7207 l -11.608295,-0.0346 -2.011583,-4.28459 c -1.73159,-3.68822 -2.653063,-4.57828 -6.620241,-6.39451 -4.118763,-1.88563 -5.449588,-2.07314 -12.519674,-1.76391 -7.31385,0.31988 -8.152403,0.54095 -11.108792,2.92873 -4.212544,3.40234 -5.01594,5.78435 -3.319957,9.84341 1.760723,4.214 5.201629,5.68947 25.054113,10.74331 17.713462,4.5093 24.484518,7.49635 29.969872,13.22118 4.786851,4.99584 5.870669,8.23481 5.87771,17.56545 0.0085,11.25292 -3.024674,17.4969 -11.533877,23.74323 -7.022213,5.15478 -12.335756,6.32378 -30.672364,6.74801 -15.164047,0.35083 -16.367629,0.26177 -22.026225,-1.62981 z M 601.73984,331.62342 c 8.53905,-4.79688 11.72293,-11.40109 11.72293,-24.31645 0,-7.23189 -0.93665,-8.10511 -6.45404,-6.01702 -1.79009,0.67747 -6.92869,2.01109 -11.41912,2.9636 -10.68503,2.2665 -14.48752,3.86054 -17.56196,7.36213 -3.09304,3.52277 -3.71501,5.79462 -3.22016,11.76199 0.67146,8.09686 5.5494,11.47736 15.95724,11.05862 5.29842,-0.21316 7.22737,-0.70754 10.97511,-2.81287 z M 165.785,329.51629 c 4.15597,-1.94775 7.38237,-5.49094 9.85937,-10.82743 1.65678,-3.56939 1.78074,-5.50897 2.05031,-32.0811 0.15781,-15.55512 0.0338,-30.65646 -0.27563,-33.55853 l -0.56256,-5.2765 -18.02366,0 c -15.25948,0 -18.22711,0.20346 -19.35031,1.32667 -1.15925,1.15925 -1.32666,5.35281 -1.32666,33.23223 0,17.54806 0.37369,33.95194 0.83043,36.45306 0.69706,3.8171 1.44834,5.11688 4.67762,8.0926 5.93941,5.47309 14.01765,6.43681 22.12109,2.639 z m 321.64845,-52.73152 c 13.81383,-15.71664 20.88907,-24.0086 21.65787,-25.38239 0.54877,-0.98058 0.32059,-1.69481 -0.8042,-2.51728 -1.21909,-0.89142 -5.06944,-1.09704 -17.21394,-0.91926 l -15.64359,0.22901 -0.22782,18.46658 c -0.242,19.61673 0.12594,21.84467 3.24659,19.65887 0.86429,-0.60537 4.90758,-4.89635 8.98509,-9.53553 z M 316.0867,259.36853 c 2.66587,-2.44461 6.08174,-5.31979 7.59082,-6.38928 3.151,-2.23313 3.5162,-4.00333 0.99126,-4.80472 -0.96388,-0.30593 -6.84559,-0.60431 -13.07047,-0.66309 -12.7248,-0.12015 -14.55088,0.49679 -11.72605,3.96162 0.90418,1.10904 3.50949,4.3393 5.78957,7.17833 2.28009,2.83905 4.46786,5.1619 4.86172,5.1619 0.39385,0 2.89727,-2.00014 5.56315,-4.44476 z m -55.92297,-1.02132 c 2.52178,-2.54201 5.5561,-4.86555 6.74295,-5.16343 1.72753,-0.43358 2.04965,-0.9009 1.6151,-2.34314 -0.90685,-3.00984 -1.87683,-3.45778 -7.52323,-3.47421 -7.24494,-0.0211 -8.15145,0.94081 -8.68233,9.213 -0.393,6.12389 -0.33369,6.38962 1.4262,6.38962 1.10357,0 3.66577,-1.84419 6.42131,-4.62184 z M 366.10056,242.7073 c 0,-0.46434 -0.37991,-0.84424 -0.84424,-0.84424 -0.46433,0 -0.84424,0.3799 -0.84424,0.84424 0,0.46433 0.37991,0.84423 0.84424,0.84423 0.46433,0 0.84424,-0.3799 0.84424,-0.84423 z m 17.50039,0.33417 c -0.28054,-0.28053 -1.0087,-0.31052 -1.61813,-0.0666 -0.67348,0.2695 -0.47344,0.46955 0.51006,0.51006 0.88996,0.0366 1.3886,-0.16288 1.10807,-0.44342 l 0,-3e-5 z"
     id="path3364"
     inkscape:connector-curvature="0" />
  <path
     style="fill:#000000"
     d="M 30.386877,349.56847 C 15.742822,345.81779 5.6305597,335.88526 4.2054438,323.85239 l -0.5188768,-4.3811 11.012489,0 11.012489,0 2.305056,4.01014 c 1.26778,2.20557 3.086136,4.87179 4.04079,5.92493 2.563689,2.82815 9.058913,4.417 18.056722,4.417 6.77539,0 8.493624,-0.30329 12.115198,-2.13848 5.381837,-2.72718 7.510756,-6.52694 5.872651,-10.48168 -2.332273,-5.6306 -4.498453,-6.60839 -31.676979,-14.29866 -6.500645,-1.83938 -13.149033,-3.91182 -14.774194,-4.60542 -5.096978,-2.17531 -9.929042,-6.2436 -12.3768988,-10.42055 -2.1236333,-3.6237 -2.3546839,-4.78511 -2.3164491,-11.64389 0.063126,-11.32402 3.2181809,-17.50346 12.7689889,-25.00914 8.153532,-6.40761 6.808441,-8.05269 -6.752921,-8.25898 l -6.5666813,-0.0999 0.2348839,-11.54755 0.234884,-11.54756 12.2414744,-2.78001 c 6.732811,-1.52901 20.409493,-4.52603 30.392627,-6.66004 9.983134,-2.13401 30.118249,-6.5 44.7447,-9.7022 29.106053,-6.37225 123.762543,-26.9364 176.446083,-38.33296 18.34111,-3.96757 43.79493,-9.50107 56.56406,-12.29666 12.76912,-2.7956 28.30633,-6.0717 34.52713,-7.28023 13.34448,-2.59246 10.35232,-2.90081 51.58531,5.31608 15.09078,3.00729 29.71723,5.53441 32.50322,5.61582 l 5.06544,0.14803 0.54939,-7.17604 c 0.30216,-3.94682 0.58709,-12.96963 0.63318,-20.05069 l 0.0838,-12.87465 10.84331,0 10.8433,0 0.55393,12.79782 c 0.30466,7.0388 0.55393,17.2498 0.55393,22.6911 0,6.89611 0.31971,10.15211 1.0553,10.74766 0.58042,0.46992 19.29088,4.54087 41.5788,9.04656 54.99322,11.11735 108.79782,22.07193 114.18341,23.24768 l 4.43226,0.96761 0,24.70972 0,24.70972 -6.97582,0.49228 c -7.76893,0.54827 -11.91196,1.76787 -11.38594,3.35172 0.19182,0.57756 2.59713,2.3123 5.34512,3.85497 5.8925,3.30793 8.48448,5.57533 10.2463,8.96317 1.55085,2.98218 2.64961,18.88824 2.77366,40.1527 0.1443,24.73756 1.09792,36.43393 3.27075,40.1166 1.02299,1.73383 1.67311,3.33931 1.44471,3.56771 -0.83697,0.83697 -18.73835,1.22603 -21.59891,0.46943 -2.45887,-0.65036 -3.18031,-1.40424 -4.3321,-4.52693 -0.76006,-2.06064 -1.98114,-3.86643 -2.71351,-4.01286 -0.73238,-0.14643 -3.53178,1.22475 -6.2209,3.04707 -6.43635,4.36168 -10.93429,6.57099 -14.80975,7.27427 -5.93123,1.07636 -19.1936,0.63765 -23.44866,-0.77565 -5.43918,-1.80661 -10.89758,-6.77971 -13.85334,-12.62166 -2.1748,-4.29843 -2.42252,-5.63079 -2.42252,-13.03 0,-7.01842 0.3161,-8.93241 2.12917,-12.89269 5.06018,-11.05289 13.14906,-15.37159 35.27432,-18.83312 19.21178,-3.00572 24.48295,-5.94697 24.48295,-13.66119 0,-3.04674 -0.47413,-4.27338 -2.39382,-6.19307 -4.58122,-4.58122 -15.16461,-6.28766 -23.55068,-3.79727 -4.19464,1.24568 -4.78654,1.7559 -10.66814,9.19617 -1.79276,2.26786 -2.45535,2.48296 -8.77556,2.84883 -3.76002,0.21767 -8.24072,0.1323 -9.95713,-0.1897 l -3.12073,-0.58545 0.52322,-3.8173 c 1.14894,-8.38246 6.10039,-16.01072 12.87365,-19.83331 10.39336,-5.86566 8.50959,-7.13793 -11.29495,-7.62842 l -14.96342,-0.37058 -11.38954,11.87294 c -6.26425,6.53013 -14.76673,15.3638 -18.89441,19.63038 l -7.50487,7.75742 3.47099,6.32434 c 1.90906,3.47838 9.93351,17.06142 17.83214,30.18454 10.34727,17.19137 14.06666,24.04721 13.30747,24.52928 -1.24893,0.79306 -16.10104,0.90103 -22.25331,0.16178 l -4.31485,-0.51847 -8.27312,-14.03733 c -11.06877,-18.78082 -16.43378,-27.12304 -17.44324,-27.12304 -0.45982,0 -3.27255,2.33967 -6.25051,5.19926 l -5.41449,5.19925 -0.006,9.786 c -0.003,5.3823 -0.24321,12.29704 -0.53313,15.36608 l -0.52713,5.58008 -7.57023,0.53735 c -4.16362,0.29554 -9.05247,0.30033 -10.8641,0.0106 l -3.29397,-0.52671 -0.074,-45.26998 c -0.0407,-24.89848 -0.32561,-47.16951 -0.63318,-49.49117 l -0.55922,-4.2212 -12.2618,-0.23254 c -9.03299,-0.1713 -12.65675,0.0562 -13.76167,0.86419 -1.24872,0.91309 -1.58504,2.89974 -2.00865,11.86509 l -0.50881,10.76836 -10.6346,-0.23532 -10.63462,-0.23531 -0.59023,-8.4424 c -0.84405,-12.07272 -1.23314,-13.67873 -3.44203,-14.20705 -3.0419,-0.72754 -41.9788,-1.70292 -41.9788,-1.05157 0,1.55274 2.36246,4.71393 6.92026,9.25997 9.17293,9.14924 8.62119,5.99578 8.9703,51.27015 l 0.30351,39.36183 -6.46034,0.60538 c -3.55318,0.33296 -8.65663,0.35047 -11.34098,0.0389 l -4.88064,-0.56646 -0.53169,-33.06895 c -0.29242,-18.18793 -0.91743,-34.41192 -1.38892,-36.05332 -0.47149,-1.6414 -2.39291,-4.48391 -4.26983,-6.31666 -3.24873,-3.1723 -3.70526,-3.34567 -9.50814,-3.61075 -7.2018,-0.32898 -12.05279,1.68342 -15.98467,6.63116 -3.47761,4.37611 -4.0008,9.22109 -4.61168,42.70628 l -0.5413,29.67175 -5.87902,0.33219 c -3.23346,0.18271 -8.26909,0.18001 -11.1903,-0.006 l -5.31128,-0.3382 -0.28404,-33.88694 -0.28405,-33.88703 -2.1106,-3.79907 c -2.91854,-5.25339 -6.8595,-7.07392 -15.19692,-7.02024 -7.11809,0.0458 -9.94727,1.12456 -13.92934,5.31101 -2.31728,2.4362 -2.57984,3.32233 -3.08659,10.4173 -0.30463,4.26503 -0.58956,20.19658 -0.63318,35.40345 l -0.0793,27.64884 -11.26028,0 -11.26029,0 -0.55783,-31.0258 c -0.3068,-17.0642 -0.56256,-38.0541 -0.56836,-46.64424 -0.006,-8.59014 -0.24602,-17.04309 -0.53383,-18.78433 l -0.52328,-3.1659 -12.44977,0 c -10.49125,0 -12.62989,0.21705 -13.59485,1.37975 -0.92599,1.11575 -1.20658,10.62459 -1.46643,49.69709 l -0.32135,48.31733 -5.60191,0.52917 c -12.94118,1.22245 -16.15491,0.21789 -16.15491,-5.04976 0,-3.18588 -1.24736,-6.22842 -2.55349,-6.22842 -0.44307,0 -2.95418,1.94577 -5.58023,4.32393 -2.62605,2.37817 -6.90404,5.31193 -9.50663,6.51946 -4.2186,1.95733 -5.78536,2.19776 -14.44076,2.21612 -5.453,0.0116 -11.24723,-0.44579 -13.21854,-1.04338 -8.86475,-2.68728 -15.92568,-10.4773 -18.04993,-19.9137 -0.59384,-2.63798 -1.24393,-19.05775 -1.65537,-41.81075 -0.54186,-29.96546 -0.90563,-37.61143 -1.81692,-38.18892 -1.30061,-0.82422 -37.812292,-0.82996 -41.662922,-0.007 -1.392996,0.29787 -2.507478,0.91776 -2.476628,1.37753 0.03085,0.45978 2.801705,2.54554 6.157456,4.63503 3.679297,2.29096 6.981539,5.12181 8.318588,7.13113 2.30002,3.45649 6.287912,14.76 5.600017,15.87303 -0.215695,0.349 -5.403527,0.62559 -11.528521,0.61465 l -11.13635,-0.0197 -1.853684,-4.2189 c -2.532063,-5.76284 -7.891794,-8.38677 -17.141708,-8.39194 -8.412419,-0.005 -11.983542,1.1002 -15.126861,4.68024 -2.928625,3.33552 -3.197141,5.21522 -1.275762,8.93076 1.821789,3.52295 7.188425,5.77234 24.00078,10.05981 21.397011,5.45662 30.479141,10.40922 34.564496,18.84843 1.38641,2.86395 1.737808,5.23817 1.737808,11.74161 0,10.17573 -1.959818,15.19622 -8.196175,20.99624 -8.056361,7.49269 -12.906401,8.83542 -34.437926,9.53416 -9.700218,0.31479 -14.733916,0.12433 -17.857461,-0.67569 z M 598.16631,333.35276 c 3.07597,-0.91345 5.67679,-2.52417 8.51995,-5.27649 5.22882,-5.06174 6.95479,-10.4354 6.60095,-20.55145 l -0.24656,-7.04892 -2.53272,0.11749 c -3.60659,0.16732 -24.89306,5.72675 -27.88576,7.28299 -2.77397,1.4425 -5.59086,4.28437 -7.04469,7.10715 -1.37891,2.67734 -1.16352,10.11385 0.38763,13.38265 2.72708,5.74689 12.35728,7.90992 22.2012,4.98658 z M 165.8151,329.69134 c 3.94265,-2.02788 7.03421,-5.31725 9.60548,-10.22005 1.9693,-3.75499 1.99565,-4.15164 2.27019,-34.17502 0.15278,-16.70677 0.0345,-31.99806 -0.26278,-33.98064 l -0.54057,-3.60471 -18.03911,0 c -15.27356,0 -18.24252,0.20339 -19.36579,1.32666 -1.16164,1.16164 -1.32209,5.38843 -1.2899,33.98065 0.0202,17.95968 0.35513,34.30146 0.74424,36.31505 0.86966,4.50038 5.61942,9.67424 10.55734,11.5 4.3457,1.60679 12.02082,1.06978 16.3209,-1.14194 z m 314.19121,-44.62282 c 4.53995,-4.22833 29.61499,-33.49006 29.61499,-34.5597 0,-2.34681 -3.50547,-2.83364 -18.76456,-2.60596 l -15.42715,0.23018 -0.2389,17.72903 c -0.30929,22.95217 -0.10045,23.78509 4.81562,19.20645 z M 318.8196,257.23828 c 4.18094,-3.58226 7.6017,-6.97582 7.6017,-7.54126 0,-1.47585 -1.81229,-1.82764 -12.24148,-2.37623 -10.27414,-0.54044 -15.25057,0.19039 -15.10021,2.2176 0.11046,1.4892 10.33229,14.21308 11.41819,14.21308 0.39606,0 4.14087,-2.93094 8.3218,-6.51319 z m -58.34737,1.11608 c 2.72381,-2.50409 5.77565,-4.81417 6.78186,-5.13353 1.40457,-0.44579 1.7012,-1.00601 1.27719,-2.4121 -0.92179,-3.05674 -1.91539,-3.51993 -7.55062,-3.51993 -7.31299,0 -8.30157,1.0547 -8.71799,9.30111 -0.30159,5.97221 -0.22133,6.31732 1.46908,6.31732 0.98803,0 4.00396,-2.03711 6.74048,-4.55287 z m 105.62833,-15.23693 c 0,-0.20476 -0.37991,-0.6071 -0.84424,-0.89407 -0.46433,-0.28697 -0.84424,-0.11944 -0.84424,0.37229 0,0.49174 0.37991,0.89407 0.84424,0.89407 0.46433,0 0.84424,-0.16753 0.84424,-0.37229 z m 17.50039,-0.13777 c -0.28054,-0.28054 -1.0087,-0.31052 -1.61813,-0.0666 -0.67348,0.26949 -0.47344,0.46954 0.51006,0.51005 0.88996,0.0366 1.3886,-0.16288 1.10807,-0.44341 l 0,-3e-5 z"
     id="path3366"
     inkscape:connector-curvature="0" />
  <path
     style="fill:#000000"
     d="M 30.615293,349.8294 C 16.260149,346.19571 5.6111318,335.72123 4.2054438,323.85239 l -0.5188768,-4.3811 11.030751,0 11.030751,0 2.64373,4.62076 c 4.418933,7.72348 8.837414,9.67303 22.008436,9.71067 6.068715,0.0174 7.908934,-0.322 11.529241,-2.12608 5.257958,-2.62015 7.540729,-6.44868 6.101749,-10.23348 -2.078787,-5.46762 -5.152229,-7.09291 -22.073331,-11.67277 -25.161614,-6.81023 -32.202691,-10.24503 -36.6868933,-17.89675 -2.1203528,-3.6181 -2.3517821,-4.78237 -2.3135596,-11.63896 0.063024,-11.30566 3.2208969,-17.50559 12.7176049,-24.96876 8.086536,-6.35497 7.35163,-7.46217 -5.434421,-8.18745 L 6.4083412,246.6342 6.6424685,235.1544 6.8765956,223.67461 34.314384,217.64644 c 15.090783,-3.3155 36.555576,-8.0029 47.699539,-10.41646 22.942347,-4.96885 73.512797,-15.94869 133.811977,-29.05322 22.5201,-4.89418 48.16388,-10.45087 56.98618,-12.3482 8.8223,-1.89733 27.05788,-5.87978 40.5235,-8.84989 49.11221,-10.83266 53.71851,-11.71707 60.78526,-11.67072 4.81136,0.0316 14.64553,1.6304 34.1917,5.5589 31.20645,6.27204 41.08315,7.92029 41.99627,7.00844 0.88936,-0.88813 1.73073,-13.86529 1.82488,-28.14686 l 0.0793,-12.03041 10.84423,0 10.84424,0 0.553,11.53071 c 0.30415,6.3419 0.553,16.38232 0.553,22.31205 0,8.67556 0.25912,11.04045 1.32666,12.10799 0.72966,0.72967 1.53395,1.32666 1.7873,1.32666 0.68974,0 145.83588,29.45919 152.43719,30.939 l 5.69862,1.27745 0,24.71285 0,24.71286 -7.12339,0.54754 c -7.96187,0.61199 -11.75959,1.72538 -11.23837,3.29476 0.19182,0.57756 2.59713,2.31013 5.34512,3.85017 7.35384,4.12125 10.23259,7.23342 11.30158,12.21798 0.49755,2.31995 1.27639,18.43512 1.73075,35.81149 0.90903,34.76452 1.12734,37.35827 3.4938,41.51005 0.89351,1.5676 1.42853,3.04622 1.18893,3.28581 -0.91441,0.9144 -20.37011,1.18893 -22.5932,0.31879 -1.63,-0.638 -2.57435,-1.88561 -3.32586,-4.39394 -1.28919,-4.30294 -2.45816,-4.82518 -5.99897,-2.68004 -1.51299,0.91662 -5.02275,3.05442 -7.79947,4.75066 -2.77671,1.69624 -6.46968,3.46674 -8.2066,3.93445 -5.10328,1.37416 -20.47466,1.08771 -25.16117,-0.4689 -5.50348,-1.82796 -11.21514,-7.04501 -14.04474,-12.82851 -2.06005,-4.2106 -2.31935,-5.67523 -2.28589,-12.91154 0.0318,-6.88213 0.37157,-8.89136 2.16633,-12.81162 2.55651,-5.58416 6.89435,-10.11571 12.31056,-12.86032 5.14389,-2.6066 8.54285,-3.49527 23.18212,-6.06101 15.4659,-2.71063 17.99357,-3.50638 21.42872,-6.74615 2.44116,-2.3023 2.83528,-3.22918 2.83528,-6.66787 0,-3.35931 -0.40712,-4.37415 -2.5624,-6.38749 -3.61488,-3.3768 -7.79907,-4.60325 -15.58875,-4.56927 -8.56931,0.0374 -12.11372,1.66487 -16.47086,7.56292 -3.63765,4.92411 -5.09583,5.48379 -14.23836,5.46495 -10.01881,-0.0207 -10.60581,-0.66203 -8.15536,-8.91082 2.10258,-7.0778 5.70377,-11.77322 12.24562,-15.96643 3.26429,-2.09237 5.93509,-4.19611 5.93509,-4.67497 0,-1.85685 -4.8682,-2.51736 -18.55363,-2.51736 l -14.22252,0 -10.41654,10.75716 c -5.72909,5.91644 -14.14938,14.61021 -18.71175,19.31951 l -8.29522,8.56235 2.10206,4.10814 c 1.15614,2.25947 9.15405,15.86836 17.77315,30.24196 11.11744,18.54 15.37017,26.32499 14.63554,26.79169 -1.23335,0.78353 -20.37764,0.90984 -24.1308,0.15921 -2.34618,-0.46923 -3.48319,-2.00349 -10.79242,-14.56313 -10.5708,-18.16409 -16.29994,-27.12436 -17.34315,-27.12436 -0.45982,0 -3.27255,2.33967 -6.25051,5.19926 l -5.41449,5.19925 0,10.29534 c 0,5.66244 -0.23974,12.58907 -0.53276,15.39252 l -0.53276,5.09717 -7.75526,0.58144 c -4.26541,0.31979 -9.15441,0.31895 -10.86448,-0.002 l -3.10921,-0.58346 -0.0987,-44.01756 c -0.0543,-24.20966 -0.33921,-46.48697 -0.63318,-49.50512 l -0.53451,-5.48756 -10.55299,-0.25186 c -12.23158,-0.2919 -15.66295,0.16071 -16.43307,2.16761 -0.30554,0.79623 -0.78013,5.91466 -1.05463,11.37427 l -0.49911,9.92657 -10.4506,0 c -7.61711,0 -10.5424,-0.28613 -10.78916,-1.0553 -0.1862,-0.58042 -0.58904,-5.11437 -0.8952,-10.07545 -0.32797,-5.3145 -1.0168,-9.64988 -1.67671,-10.553 -1.00143,-1.37052 -3.31921,-1.6132 -21.88778,-2.29171 -11.42226,-0.41738 -21.0024,-0.52422 -21.2892,-0.23741 -0.80598,0.80598 2.07309,4.77004 7.00991,9.65162 8.72498,8.62737 8.25806,5.85557 8.59033,50.99591 l 0.28994,39.3895 -6.32531,0.59273 c -3.47891,0.326 -8.63971,0.32412 -11.46842,-0.004 l -5.14311,-0.59689 -0.0578,-19.54568 c -0.0318,-10.75012 -0.34485,-26.45044 -0.69563,-34.88958 -0.62542,-15.04663 -0.68345,-15.40378 -2.99478,-18.43409 -3.40143,-4.45951 -6.8933,-6.31735 -11.87018,-6.31553 -8.87107,0.003 -15.00841,3.58496 -17.72614,10.34482 -1.67115,4.15667 -2.86302,25.4598 -2.92152,52.21867 l -0.0362,16.5603 -6.01181,0.43014 c -3.3065,0.23658 -8.3968,0.2387 -11.31178,0.005 l -5.29998,-0.42543 -0.2965,-33.87193 -0.29652,-33.87227 -2.29287,-3.90027 c -3.05488,-5.19652 -6.2797,-6.65272 -14.73268,-6.65272 -7.68126,0 -11.08082,1.40319 -14.93423,6.1642 l -2.4537,3.03162 -0.43383,34.65924 -0.43383,34.65922 -11.1384,0 -11.1384,0 -0.55687,-25.96036 c -0.30628,-14.27821 -0.55755,-34.93016 -0.55836,-45.89323 -8.1e-4,-10.96307 -0.24308,-21.69547 -0.53835,-23.84977 l -0.53688,-3.91691 -11.96536,0 c -8.7571,0 -12.38647,0.30792 -13.53589,1.1484 -1.49158,1.09067 -1.59029,3.58925 -1.96343,49.70174 l -0.3929,48.55334 -5.07569,0.53052 c -12.84584,1.34266 -16.64736,0.18708 -16.64736,-5.06042 0,-3.18588 -1.24736,-6.22842 -2.55349,-6.22842 -0.44307,0 -2.95418,1.94577 -5.58023,4.32393 -2.62605,2.37817 -6.90404,5.32071 -9.50663,6.539 -4.32163,2.02297 -5.64718,2.21403 -15.285,2.20313 -9.15017,-0.0104 -11.10794,-0.26572 -14.72771,-1.92101 -5.95204,-2.72184 -9.3911,-5.57971 -11.93217,-9.91573 -4.47997,-7.64449 -4.63904,-9.09848 -5.4436,-49.75869 -0.68323,-34.52801 -0.8843,-38.0735 -2.21438,-39.04608 -1.06636,-0.77974 -6.07866,-1.06971 -18.490641,-1.06971 -18.780573,0 -24.86154,0.52077 -24.86154,2.12914 0,0.58046 2.591514,2.59498 5.758919,4.4767 3.448482,2.0487 6.694361,4.77115 8.090568,6.78588 2.359508,3.40477 6.582538,15.19815 5.860545,16.36636 -0.215695,0.349 -5.403527,0.61897 -11.528521,0.59994 l -11.13635,-0.0346 -1.882792,-4.02172 c -2.68209,-5.72905 -6.895189,-7.93794 -16.057565,-8.41885 -8.276833,-0.43442 -13.332529,1.09511 -16.64946,5.03706 -2.447032,2.90813 -2.654785,4.86218 -0.881518,8.2913 1.77658,3.43553 7.765193,5.96165 24.0741,10.15494 15.846072,4.07431 24.299217,7.60404 29.550915,12.3394 5.426178,4.89269 6.712343,8.42666 6.724601,18.47695 0.01258,10.30771 -1.776922,14.86633 -8.17155,20.81659 -4.968791,4.62351 -9.200644,6.91925 -15.031062,8.15423 -5.986257,1.26798 -33.050907,1.97334 -37.033746,0.96517 z M 601.73984,331.56161 c 8.43464,-4.73824 11.72293,-11.42758 11.72293,-23.84786 0,-3.80695 -0.3867,-6.08569 -1.13866,-6.70975 -1.48354,-1.23124 -28.297,5.60986 -31.61216,8.06541 -1.25681,0.93094 -3.17278,2.98736 -4.2577,4.56983 -1.69052,2.4658 -1.92834,3.68616 -1.66321,8.53471 0.25073,4.585 0.7047,6.08582 2.3947,7.91686 3.39499,3.67831 6.44023,4.64706 13.57899,4.31977 5.25414,-0.24089 7.25869,-0.76124 10.97511,-2.84897 z m -436.11831,-1.88655 c 3.75971,-1.66117 7.11487,-5.22913 9.89967,-10.52756 1.74995,-3.32949 1.84056,-4.70868 2.15983,-32.87427 0.18328,-16.16945 0.0731,-31.48107 -0.24485,-34.02583 l -0.57809,-4.62685 -18.43828,0.25624 c -10.14105,0.14094 -18.75408,0.57337 -19.14006,0.96096 -0.38598,0.38759 -0.70177,16.53367 -0.70177,35.88018 0,39.18632 -0.14929,38.09887 5.89672,42.95287 5.73583,4.60499 13.57838,5.34829 21.14683,2.00426 z m 314.36229,-44.60654 c 3.23873,-3.04388 26.66798,-29.99649 28.48244,-32.7657 2.49402,-3.80635 1.02751,-4.16978 -16.82577,-4.16978 l -16.2109,0 -0.24721,16.88479 c -0.25081,17.13103 0.10963,22.37235 1.53851,22.37235 0.43596,0 1.90428,-1.04475 3.26293,-2.32166 z M 314.83186,260.53636 c 1.96304,-1.7683 5.37372,-4.66338 7.5793,-6.43349 6.61281,-5.30721 5.81096,-5.99726 -7.80922,-6.72049 -9.19926,-0.48847 -15.61843,0.25643 -15.61843,1.81242 0,1.35687 10.40615,14.55667 11.47586,14.55667 0.44184,0 2.40946,-1.4468 4.37249,-3.21511 z m -54.41719,-2.19987 c 2.81738,-2.51391 5.92045,-4.82399 6.8957,-5.13352 1.35032,-0.42858 1.64148,-0.99956 1.22091,-2.39424 -0.92179,-3.05674 -1.91539,-3.51993 -7.55062,-3.51993 -7.22677,0 -8.1342,0.96653 -8.66444,9.22881 -0.38305,5.96879 -0.29856,6.38962 1.28293,6.38962 0.93115,0 3.99813,-2.05683 6.81552,-4.57074 z m 105.68589,-15.69101 c 0,-0.46433 -0.37991,-0.84424 -0.84424,-0.84424 -0.46433,0 -0.84424,0.37991 -0.84424,0.84424 0,0.46433 0.37991,0.84424 0.84424,0.84424 0.46433,0 0.84424,-0.37991 0.84424,-0.84424 z"
     id="path3368"
     inkscape:connector-curvature="0" />
  <path
     style="fill:#000000"
     d="M 29.472289,349.46971 C 15.230869,345.43123 5.604177,335.6625 4.2024422,323.82705 l -0.5218784,-4.40645 11.2530722,0.2364 11.253072,0.23641 2.83673,4.85725 c 3.928203,6.72613 7.198512,8.29227 18.522245,8.8702 9.972502,0.50897 14.399922,-0.65886 18.424802,-4.85992 2.766359,-2.88746 3.118566,-6.3636 0.976073,-9.63345 -2.171278,-3.3138 -4.32683,-4.36585 -15.747382,-7.68578 -32.37375,-9.411 -37.323587,-11.72248 -41.9473626,-19.58861 -2.1441019,-3.64762 -2.3703278,-4.78013 -2.3249621,-11.63896 0.075662,-11.43943 3.4156027,-17.92487 13.0483577,-25.33711 7.741696,-5.9571 6.969913,-7.00442 -5.734524,-7.78187 l -7.8322244,-0.4793 0.2340676,-11.48289 0.2340674,-11.48288 16.0405534,-3.57233 c 8.822304,-1.96479 29.147373,-6.41054 45.16682,-9.87947 16.019447,-3.46892 55.529861,-12.04634 87.800921,-19.06092 32.27106,-7.01458 77.10018,-16.73468 99.62028,-21.60024 22.52009,-4.86555 50.25336,-10.90538 61.62949,-13.42185 45.71874,-10.11328 49.16778,-10.76995 56.56406,-10.76945 5.48657,3.7e-4 14.23201,1.39994 37.14654,5.94471 36.19872,7.17949 39.2367,7.61352 39.96717,5.70993 0.29235,-0.76184 0.78726,-9.91655 1.09981,-20.34381 l 0.56827,-18.95864 10.71162,0 10.71162,0 0.55186,10.26342 c 0.30353,5.64488 0.55186,15.6853 0.55186,22.31205 0,9.82764 0.24455,12.29317 1.32666,13.37528 0.72966,0.72967 1.5849,1.32666 1.90052,1.32666 0.8125,0 145.41792,29.35651 152.32397,30.92346 l 5.69862,1.29299 0,24.7213 0,24.7213 -7.25343,0.58854 c -7.63398,0.61941 -11.31984,1.58403 -11.31984,2.96248 0,0.45534 2.56438,2.33096 5.69862,4.16803 7.30292,4.28046 10.02992,7.20581 11.12168,11.93066 0.48282,2.08949 1.27441,18.04562 1.75909,35.45806 0.902,32.40487 1.52161,39.28607 3.85865,42.85285 0.73457,1.12109 1.1163,2.25764 0.84827,2.52566 -0.77595,0.77597 -17.76163,1.32874 -21.1717,0.68901 -2.72434,-0.51109 -3.30229,-1.07981 -4.82787,-4.75078 -0.95318,-2.29361 -2.09756,-4.17019 -2.54304,-4.17019 -0.4455,0 -4.26827,2.09487 -8.49505,4.65526 -9.58831,5.80818 -11.92113,6.43156 -24.01384,6.41699 -8.7464,-0.0106 -10.19797,-0.23449 -14.19524,-2.19018 -5.22336,-2.55554 -9.99344,-7.52847 -12.46969,-12.99993 -2.71565,-6.00047 -2.50648,-18.26965 0.42041,-24.6593 4.44883,-9.71217 12.62532,-14.8441 28.2383,-17.72367 19.5512,-3.6059 22.64435,-4.31349 25.7241,-5.88465 4.20481,-2.14514 5.82611,-4.63431 5.82611,-8.9448 0,-2.81442 -0.52252,-4.06882 -2.53192,-6.07821 -3.46072,-3.46072 -7.64524,-4.71344 -15.61923,-4.67595 -8.40696,0.0395 -12.67182,1.99029 -16.49276,7.54385 -3.24469,4.716 -5.03737,5.44701 -13.32165,5.43229 -11.09727,-0.0198 -11.87409,-0.87245 -8.88944,-9.7579 2.23745,-6.66096 5.80323,-11.09292 12.24915,-15.22465 3.23939,-2.07639 5.74222,-4.21803 5.56183,-4.75918 -0.60617,-1.81853 -5.59686,-2.37114 -19.30612,-2.13776 l -13.6299,0.23203 -18.55051,19.18068 -18.5505,19.18068 3.20051,5.72439 c 1.76029,3.14841 9.76159,16.70881 17.78067,30.13423 8.01908,13.42541 14.38372,24.72767 14.14364,25.11613 -0.4919,0.79591 -22.53634,0.95594 -25.41353,0.18449 -1.31524,-0.35265 -4.50272,-4.98603 -10.8818,-15.81797 -10.48327,-17.80103 -15.64082,-25.87222 -16.53255,-25.87222 -0.34886,0 -3.1176,2.32301 -6.15274,5.16224 l -5.51845,5.16223 -0.008,11.08938 c -0.004,6.09916 -0.24315,13.05213 -0.53135,15.45104 l -0.52401,4.36166 -7.88653,0.59128 c -4.33757,0.3252 -9.1873,0.34724 -10.77716,0.049 l -2.89064,-0.54229 -0.29978,-48.97515 c -0.25923,-42.39302 -0.46972,-49.08272 -1.56588,-49.77558 -1.36987,-0.86587 -21.19414,-1.11924 -24.21349,-0.30946 -2.49234,0.66844 -2.67011,1.36389 -3.32906,13.02365 l -0.57344,10.14675 -10.63267,-0.23533 -10.63268,-0.23532 -0.90017,-10.35232 c -0.4951,-5.69377 -1.34475,-10.79689 -1.88811,-11.34025 -1.05275,-1.05275 -41.99112,-3.04377 -42.94622,-2.08867 -0.75345,0.75345 1.4248,3.73252 6.83057,9.34184 9.00076,9.33965 8.44653,6.10407 8.77892,51.25041 l 0.28967,39.34373 -3.98784,0.54659 c -4.94188,0.67736 -11.64524,0.68871 -15.64842,0.0265 l -3.03175,-0.50152 -0.58551,-32.20348 c -0.32204,-17.7119 -0.92705,-33.6937 -1.34448,-35.51509 -0.86641,-3.78052 -2.89224,-6.7863 -6.26788,-9.29981 -1.90535,-1.41874 -3.53506,-1.73037 -8.81235,-1.68509 -9.08879,0.078 -13.61444,2.78638 -16.60144,9.93526 -1.5452,3.69819 -2.90042,28.34782 -2.93678,53.41577 l -0.0222,15.28492 -6.00761,0.50365 c -3.30418,0.27701 -8.43294,0.27718 -11.39723,3.7e-4 l -5.38963,-0.5033 -0.0671,-27.94888 c -0.081,-33.69901 -0.56274,-40.90252 -2.9495,-44.09932 -3.50805,-4.69866 -5.87945,-5.77832 -13.38129,-6.09232 -8.16968,-0.34194 -12.40428,1.27486 -16.12895,6.15816 l -2.23207,2.92639 -0.4803,34.65007 -0.48029,34.65006 -11.13101,0 -11.13102,0 -0.55588,-22.16129 c -0.30573,-12.18871 -0.55666,-32.26809 -0.5576,-44.62085 -8.5e-4,-12.35277 -0.24858,-24.82124 -0.55027,-27.70772 l -0.54854,-5.24816 -12.56959,0.26994 c -9.19348,0.19742 -12.75212,0.56599 -13.2492,1.3722 -1.01549,1.64699 -1.78828,30.18281 -1.78828,66.03295 l 0,31.82775 -4.43226,0.53237 c -12.34169,1.48241 -17.51797,0.1494 -17.51797,-4.51129 0,-2.9091 -1.35621,-6.76101 -2.38047,-6.76101 -0.40358,0 -2.97736,1.96374 -5.71951,4.36387 -2.74215,2.40013 -7.07523,5.34441 -9.62905,6.54285 -4.22733,1.98378 -5.58876,2.17707 -15.19632,2.15753 -9.12452,-0.0186 -11.11809,-0.27911 -14.72771,-1.92487 -5.94581,-2.71091 -9.38915,-5.57072 -11.93217,-9.91006 -4.46537,-7.61958 -4.64088,-9.1872 -5.47118,-48.86825 -0.4268,-20.39726 -0.98131,-37.7328 -1.23225,-38.52342 -0.67033,-2.11206 -3.97729,-2.48809 -21.406731,-2.43416 -16.203062,0.0502 -22.129513,0.59473 -22.624258,2.07896 -0.156777,0.47033 2.327272,2.46715 5.520109,4.43736 3.282066,2.02527 6.800489,5.01846 8.095222,6.88675 2.327542,3.35865 6.534697,15.14827 5.818959,16.30636 -0.215695,0.349 -5.469042,0.63455 -11.674108,0.63455 l -11.281938,0 -0.961258,-2.91265 c -1.203993,-3.64813 -5.734055,-7.6961 -9.910666,-8.85595 -4.149026,-1.15219 -12.432937,-1.13182 -16.657194,0.041 -3.67591,1.02057 -8.904131,5.6754 -8.904131,7.92761 0,3.23504 2.745147,7.12908 6.199223,8.79374 1.930243,0.93025 10.431067,3.56508 18.89072,5.85516 17.260121,4.67243 24.517628,7.7118 29.810688,12.48441 5.40902,4.87716 6.691783,8.41513 6.691783,18.45659 0,10.12003 -1.414878,13.9702 -7.393901,20.12029 -7.692671,7.91277 -13.372241,9.58094 -34.906488,10.25254 -11.495119,0.35851 -15.600244,0.18704 -19.068682,-0.79653 z m 570.595351,-16.9653 c 5.36245,-2.76228 8.29104,-5.60978 10.5789,-10.28601 1.99022,-4.06786 2.29768,-5.74662 2.34251,-12.79035 0.0626,-9.83211 0.39992,-9.66259 -12.83406,-6.4497 -21.09941,5.12242 -25.52724,8.2003 -25.52724,17.74449 0,6.68803 2.95934,11.46157 8.14062,13.13112 3.58735,1.15594 14.01448,0.3425 17.29927,-1.34955 z M 165.785,329.45448 c 4.18467,-1.9612 7.42416,-5.53745 9.80788,-10.82743 1.58113,-3.50886 1.74008,-5.93972 2.0807,-31.82072 0.20285,-15.41191 0.0986,-30.54494 -0.23168,-33.62897 l -0.6005,-5.60732 -18.42949,0.2815 c -10.13622,0.15483 -18.74549,0.59826 -19.13171,0.98541 -0.87349,0.87559 -0.93893,68.52403 -0.0693,71.62457 1.33636,4.76454 6.80842,9.39429 12.8749,10.89309 3.57773,0.88393 9.51637,0.0602 13.69919,-1.90013 l 2e-5,0 z m 328.27636,-60.21545 c 7.29389,-8.35797 13.83521,-16.07062 14.53628,-17.13921 2.34838,-3.5795 0.69282,-3.96678 -16.95738,-3.96678 l -16.21067,0 -0.22792,17.96409 c -0.14787,11.65453 0.0916,18.56103 0.68167,19.66367 0.88081,1.64581 0.97296,1.65173 2.91299,0.18706 1.10188,-0.83188 7.97114,-8.35086 15.26503,-16.70883 z M 318.51864,257.35597 c 4.1143,-3.51753 7.5992,-6.91504 7.74423,-7.55003 0.38832,-1.70019 -3.83467,-2.2123 -15.87184,-1.92476 -8.71603,0.20822 -10.58614,0.47844 -10.79329,1.55959 -0.24131,1.25942 9.65769,14.3107 10.85422,14.3107 0.32238,0 3.95239,-2.87798 8.06668,-6.3955 z m -58.17081,0.97053 c 2.88878,-2.51941 6.02023,-4.82445 6.95876,-5.12233 2.03284,-0.64521 2.10385,-1.17317 0.47125,-3.50404 -1.44191,-2.05861 -6.27975,-3.03016 -10.58419,-2.12555 -3.50958,0.73756 -4.94199,3.84925 -5.01779,10.90039 -0.063,5.85857 1.31285,5.83357 8.17197,-0.14847 z"
     id="path3370"
     inkscape:connector-curvature="0" />
</svg>
